<svg width="16" height="16" viewBox="0 0 16 16" fill="none" xmlns="http://www.w3.org/2000/svg">
<rect x="3" y="4" width="10" height="1" fill="white"/>
<rect x="12" y="5" width="1" height="6" fill="white"/>
<rect x="3" y="10" width="9" height="1" fill="white"/>
<rect width="1" height="5" transform="matrix(-1 0 0 1 4 5)" fill="white"/>
<rect x="4" y="5" width="1" height="1" fill="white"/>
<rect x="5" y="6" width="1" height="1" fill="white"/>
<rect x="6" y="5" width="1" height="1" fill="white"/>
<rect x="4" y="7" width="1" height="1" fill="white"/>
<rect x="6" y="7" width="1" height="1" fill="white"/>
<rect x="5" y="8" width="1" height="1" fill="white"/>
<rect x="4" y="9" width="1" height="1" fill="white"/>
<rect x="6" y="9" width="1" height="1" fill="white"/>
<rect x="7" y="8" width="1" height="1" fill="white"/>
<rect x="7" y="6" width="1" height="1" fill="white"/>
<rect x="8" y="5" width="1" height="1" fill="white"/>
<rect x="10" y="5" width="1" height="1" fill="white"/>
<rect x="9" y="6" width="1" height="1" fill="white"/>
<rect x="8" y="7" width="1" height="1" fill="white"/>
<rect x="10" y="7" width="1" height="1" fill="white"/>
<rect x="8" y="9" width="1" height="1" fill="white"/>
<rect x="9" y="8" width="1" height="1" fill="white"/>
<rect x="11" y="6" width="1" height="1" fill="white"/>
<rect x="11" y="8" width="1" height="1" fill="white"/>
<rect x="10" y="9" width="1" height="1" fill="white"/>
</svg>
