<svg width="16" height="16" viewBox="0 0 16 16" fill="none" xmlns="http://www.w3.org/2000/svg">
<rect width="8.02539" height="1" transform="matrix(1 0 0 -1 2.9873 14)" fill="white"/>
<rect width="1" height="1" transform="matrix(1 0 0 -1 10.0127 10)" fill="white"/>
<rect width="1" height="1" transform="matrix(1 0 0 -1 9.0127 11)" fill="white"/>
<rect width="1" height="1" transform="matrix(1 0 0 -1 11.0127 13)" fill="white"/>
<rect width="6.02539" height="4" transform="matrix(1 0 0 -1 4.9873 7)" fill="white"/>
<rect width="9" height="1" transform="matrix(1 0 0 -1 3.9873 2)" fill="white"/>
<rect width="1" height="13" transform="matrix(1 0 0 -1 2.9873 14)" fill="white"/>
<rect width="1" height="11" transform="matrix(1 0 0 -1 12.0127 12)" fill="white"/>
<rect width="3" height="1" transform="matrix(1 0 0 -1 4.9873 11)" fill="white"/>
<rect width="1" height="3" transform="matrix(1 0 0 -1 5.9873 12)" fill="white"/>
</svg>
