<svg width="16" height="17" viewBox="0 0 16 17" fill="none" xmlns="http://www.w3.org/2000/svg">
<rect x="10" y="5.5" width="1" height="1" transform="rotate(180 10 5.5)" fill="white"/>
<rect x="9" y="4.5" width="1" height="1" transform="rotate(180 9 4.5)" fill="white"/>
<rect x="5" y="7.5" width="1" height="1" transform="rotate(180 5 7.5)" fill="white"/>
<rect x="6" y="6.5" width="1" height="1" transform="rotate(180 6 6.5)" fill="white"/>
<rect x="7" y="5.5" width="1" height="1" transform="rotate(180 7 5.5)" fill="white"/>
<rect x="8" y="4.5" width="1" height="1" transform="rotate(180 8 4.5)" fill="white"/>
<rect x="11" y="6.5" width="1" height="1" transform="rotate(180 11 6.5)" fill="white"/>
<rect x="12" y="7.5" width="1" height="1" transform="rotate(180 12 7.5)" fill="white"/>
<rect x="13.0107" y="8.5" width="10.0107" height="1" transform="rotate(180 13.0107 8.5)" fill="white"/>
<rect x="12" y="9.5" width="8" height="1" transform="rotate(180 12 9.5)" fill="white"/>
<rect x="11" y="10.5" width="6" height="1" transform="rotate(180 11 10.5)" fill="white"/>
<rect x="10" y="11.5" width="4" height="1" transform="rotate(180 10 11.5)" fill="white"/>
<rect x="9" y="12.5" width="2" height="1" transform="rotate(180 9 12.5)" fill="white"/>
</svg>
