<svg width="16" height="16" viewBox="0 0 16 16" fill="none" xmlns="http://www.w3.org/2000/svg">
<rect x="7" y="5" width="3" height="1" transform="rotate(180 7 5)" fill="white"/>
<rect x="6" y="4" width="1" height="1" transform="rotate(180 6 4)" fill="white"/>
<rect x="6" y="6" width="1" height="1" transform="rotate(180 6 6)" fill="white"/>
<rect x="11.9697" y="8" width="3" height="1" transform="rotate(180 11.9697 8)" fill="white"/>
<rect x="10.9697" y="7" width="1" height="1" transform="rotate(180 10.9697 7)" fill="white"/>
<rect x="10.9697" y="9" width="1" height="1" transform="rotate(180 10.9697 9)" fill="white"/>
<rect x="8" y="11" width="3" height="1" transform="rotate(180 8 11)" fill="white"/>
<rect x="7" y="10" width="1" height="1" transform="rotate(180 7 10)" fill="white"/>
<rect x="7" y="12" width="1" height="1" transform="rotate(180 7 12)" fill="white"/>
</svg>
