<svg width="16" height="16" viewBox="0 0 16 16" fill="none" xmlns="http://www.w3.org/2000/svg">
<rect width="1" height="1" transform="matrix(1 0 0 -1 4 5)" fill="white"/>
<rect width="6" height="1" transform="matrix(1 0 0 -1 5 4)" fill="white"/>
<rect width="6" height="1" transform="matrix(1 0 0 -1 5 11.9999)" fill="white"/>
<rect width="1" height="1" transform="matrix(1 0 0 -1 7 7.99994)" fill="white"/>
<rect width="1" height="1" transform="matrix(1 0 0 -1 9 6)" fill="white"/>
<rect width="1" height="1" transform="matrix(1 0 0 -1 8 7)" fill="white"/>
<rect width="1" height="1" transform="matrix(1 0 0 -1 6 8.99994)" fill="white"/>
<rect width="1" height="1" transform="matrix(1 0 0 -1 5 9.99994)" fill="white"/>
<rect width="1" height="1" transform="matrix(1 0 0 -1 3 11.9999)" fill="white"/>
<rect width="1" height="1" transform="matrix(1 0 0 -1 4 10.9999)" fill="white"/>
<rect width="1" height="1" transform="matrix(1 0 0 -1 11 10.9999)" fill="white"/>
<rect width="1" height="1" transform="matrix(1 0 0 -1 10 5)" fill="white"/>
<rect width="1" height="1" transform="matrix(1 0 0 -1 11 5)" fill="white"/>
<rect width="1" height="1" transform="matrix(1 0 0 -1 12 3)" fill="white"/>
<rect width="1" height="5" transform="matrix(1 0 0 -1 3 10)" fill="white"/>
<rect width="1" height="5" transform="matrix(1 0 0 -1 12 10)" fill="white"/>
</svg>
