<svg width="256" height="256" viewBox="0 0 256 256" fill="none" xmlns="http://www.w3.org/2000/svg">
<rect x="76.5723" y="8" width="102.857" height="17.1429" fill="white"/>
<rect x="76.5723" y="93.7143" width="102.857" height="17.1429" fill="white"/>
<rect x="76.5723" y="128" width="102.857" height="85.7143" fill="white"/>
<rect width="17.1429" height="34.2857" transform="matrix(1 0 0 -1 76.5723 248)" fill="white"/>
<rect width="17.1429" height="34.2857" transform="matrix(1 0 0 -1 162.286 248)" fill="white"/>
<rect width="17.1429" height="34.2857" transform="matrix(1 0 0 -1 179.429 179.429)" fill="white"/>
<rect width="17.1429" height="34.2857" transform="matrix(1 0 0 -1 196.572 196.571)" fill="white"/>
<rect width="17.1429" height="34.2857" transform="matrix(1 0 0 -1 59.4287 179.429)" fill="white"/>
<rect width="17.1429" height="34.2857" transform="matrix(1 0 0 -1 42.2861 196.571)" fill="white"/>
<rect x="59.4287" y="25.1429" width="137.143" height="68.5714" fill="white"/>
<rect x="93.7148" y="42.2857" width="17.1429" height="34.2857" fill="#404040"/>
<rect x="145.144" y="42.2857" width="17.1429" height="34.2857" fill="#404040"/>
</svg>
