<svg width="301" height="301" viewBox="0 0 301 301" fill="none" xmlns="http://www.w3.org/2000/svg">
<path d="M125.729 250.067H115.729V260.067H125.729V250.067Z" fill="white"/>
<path d="M175.729 190.067H125.729V260.067H175.729V190.067Z" fill="white"/>
<path d="M175.729 260.067H125.729V270.067H175.729V260.067Z" fill="white"/>
<path d="M165.729 180.067H135.729V270.067H165.729V180.067Z" fill="white"/>
<path d="M165.729 230.067H155.729V240.067H165.729V230.067Z" fill="white"/>
<path d="M185.729 200.067H115.729V260.067H185.729V200.067Z" fill="white"/>
<path d="M135.729 250.067H125.729V260.067H135.729V250.067Z" fill="white"/>
<path d="M145.729 230.067H135.729V240.067H145.729V230.067Z" fill="white"/>
<path d="M185.729 200.067H115.729V260.067H185.729V200.067Z" fill="white"/>
<path d="M175.729 190.067H165.729V200.067H175.729V190.067Z" fill="white"/>
<path d="M175.729 190.067H125.729V270.067H175.729V190.067Z" fill="white"/>
<path d="M125.729 200.067H115.729V210.067H125.729V200.067Z" fill="white"/>
<path d="M185.729 210.067H175.729V260.067H185.729V210.067Z" fill="white"/>
<path d="M250.729 175.067V185.067H260.729V175.067H250.729Z" fill="white"/>
<path d="M190.729 125.067V175.067H260.729V125.067H190.729Z" fill="white"/>
<path d="M260.729 125.067V175.067H270.729V125.067H260.729Z" fill="white"/>
<path d="M180.729 135.067V165.067H270.729V135.067H180.729Z" fill="white"/>
<path d="M230.729 135.067V145.067H240.729V135.067H230.729Z" fill="white"/>
<path d="M200.729 115.067V185.067H260.729V115.067H200.729Z" fill="white"/>
<path d="M250.729 165.067V175.067H260.729V165.067H250.729Z" fill="white"/>
<path d="M230.729 155.067V165.067H240.729V155.067H230.729Z" fill="white"/>
<path d="M200.729 115.067V185.067H260.729V115.067H200.729Z" fill="white"/>
<path d="M190.729 125.067V135.067H200.729V125.067H190.729Z" fill="white"/>
<path d="M190.729 125.067V175.067H270.729V125.067H190.729Z" fill="white"/>
<path d="M200.729 175.067V185.067H210.729V175.067H200.729Z" fill="white"/>
<path d="M210.729 115.067V125.067H260.729V115.067H210.729Z" fill="white"/>
<path d="M50.7285 175.067V185.067H40.7285V175.067H50.7285Z" fill="white"/>
<path d="M110.729 125.067V175.067H40.7285V125.067H110.729Z" fill="white"/>
<path d="M40.7285 125.067V175.067H30.7285L30.7285 125.067H40.7285Z" fill="white"/>
<path d="M120.729 135.067V165.067H30.7285V135.067H120.729Z" fill="white"/>
<path d="M70.7285 135.067V145.067H60.7285V135.067H70.7285Z" fill="white"/>
<path d="M100.729 115.067V185.067H40.7285L40.7285 115.067H100.729Z" fill="white"/>
<path d="M50.7285 165.067V175.067H40.7285V165.067H50.7285Z" fill="white"/>
<path d="M70.7285 155.067V165.067H60.7285V155.067H70.7285Z" fill="white"/>
<path d="M100.729 115.067V185.067H40.7285L40.7285 115.067H100.729Z" fill="white"/>
<path d="M110.729 125.067V135.067H100.729V125.067H110.729Z" fill="white"/>
<path d="M110.729 125.067V175.067H30.7285V125.067H110.729Z" fill="white"/>
<path d="M100.729 175.067V185.067H90.7285V175.067H100.729Z" fill="white"/>
<path d="M90.7285 115.067V125.067H40.7285V115.067H90.7285Z" fill="white"/>
<path d="M125.729 50.067H115.729V40.067H125.729V50.067Z" fill="white"/>
<path d="M175.729 110.067H125.729V40.067H175.729V110.067Z" fill="white"/>
<path d="M175.729 40.067H125.729V30.067H175.729V40.067Z" fill="white"/>
<path d="M165.729 120.067H135.729V30.067H165.729V120.067Z" fill="white"/>
<path d="M165.729 70.067H155.729V60.067H165.729V70.067Z" fill="white"/>
<path d="M185.729 100.067H115.729V40.067H185.729V100.067Z" fill="white"/>
<path d="M135.729 50.067H125.729V40.067H135.729V50.067Z" fill="white"/>
<path d="M145.729 70.067H135.729V60.067H145.729V70.067Z" fill="white"/>
<path d="M185.729 100.067H115.729V40.067H185.729V100.067Z" fill="white"/>
<path d="M175.729 110.067H165.729V100.067H175.729V110.067Z" fill="white"/>
<path d="M175.729 110.067H125.729V30.067H175.729V110.067Z" fill="white"/>
<path d="M125.729 100.067H115.729V90.067H125.729V100.067Z" fill="white"/>
<path d="M185.729 90.067H175.729V40.067H185.729V90.067Z" fill="white"/>
</svg>
