<svg width="800" height="300" viewBox="0 0 800 300" fill="none" xmlns="http://www.w3.org/2000/svg">
<g clip-path="url(#clip0_120_32)">
<rect width="800" height="300" fill="#404040"/>
<path d="M110.909 215.783C110.909 215.783 111.469 214.249 111.328 214.187L84.4504 202.333C82.3117 201.39 79.8277 202.123 78.544 204.076L72.2073 213.723L51.6919 204.056L55.4583 194.204C56.2957 192.012 55.3849 189.494 53.3392 188.346L26.4289 173.238C24.3839 172.09 21.7601 172.624 20.3251 174.48L13.8746 182.825L-5.06077 170.344L-0.124962 159.911C0.874422 157.798 0.207078 155.295 -1.71171 153.96L-25.8404 137.18C-25.9651 137.093 -26.8512 138.445 -26.983 138.371L-30.1152 143.87L-10.467 159.482L-15.446 170.008C-16.4542 172.139 -15.7305 174.726 -13.7611 176.026L12.317 193.215C12.4159 193.28 12.515 193.341 12.6165 193.398C14.658 194.544 17.2794 194.008 18.7144 192.152L25.3509 183.565L45.0854 194.644L41.2098 204.781C40.3721 206.971 41.2819 209.49 43.3261 210.637C43.4262 210.693 43.5282 210.746 43.6301 210.794L71.8877 224.109C74.0217 225.114 76.6078 224.385 77.9021 222.415L84.2954 212.682L107.855 221.306L110.909 215.783Z" fill="white"/>
<g filter="url(#filter0_d_120_32)">
<path d="M85.4129 62.5269C85.0382 62.2939 84.6289 62.123 84.207 61.9947C75.8373 59.4715 67.048 57.5971 57.922 57.184C55.8092 57.0884 53.831 58.2211 52.8436 60.0913C50.1882 65.1222 47.9126 70.1892 45.7253 75.3646C43.2522 75.4334 40.8369 75.4035 37.877 75.8962C35.7984 76.1961 33.3839 76.7023 31.0635 77.1234C28.6738 72.7332 26.2396 68.3325 23.4057 64.1272C22.0471 62.1104 19.5189 61.2342 17.2037 61.9779C8.58797 64.7428 -0.0676614 68.2006 -8.31154 73.0088C-10.0611 74.0301 -11.1019 75.9354 -11.0158 77.9594C-10.7596 84.0348 -10.1565 89.9172 -9.32469 95.76L-38.0682 146.959C-45.9983 161.085 -42.648 177.138 -32.8115 191.114C-22.9758 205.091 -6.83134 218.017 12.6977 229.071L12.8253 229.143C32.4314 240.059 51.8731 247.112 68.9244 248.229C85.9758 249.346 101.422 243.845 109.351 229.721L137.355 179.855C143.146 176.98 148.309 173.954 154.18 170.706C155.951 169.726 157.034 167.847 156.996 165.823C156.809 156.281 155.251 147.086 153.126 138.291C152.555 135.929 150.493 134.228 148.065 134.117C143.001 133.888 137.973 134.104 132.98 134.35C132.132 132.149 131.312 129.826 130.482 127.89C130.476 127.887 130.471 127.884 130.475 127.864C129.356 125.087 128.078 123.045 126.853 120.906C130.131 116.344 133.274 111.762 136.186 106.876C137.269 105.059 137.206 102.781 136.024 101.026C130.918 93.4508 124.742 86.9231 118.226 81.0891C116.469 79.5162 113.901 79.2486 111.857 80.4254C107.181 83.1181 102.705 86.2568 98.3261 89.3807C96.6385 88.2209 94.9726 86.9603 93.2627 85.9733C93.2438 85.9625 93.2248 85.9518 93.2057 85.9413L93.1017 85.8829C93.0828 85.8721 93.0638 85.8614 93.0447 85.8509C91.3083 84.9032 89.3626 84.1353 87.4925 83.2987C87.8648 78.1477 88.1762 72.9188 88.0669 67.7272C88.0878 67.5117 88.0958 67.2953 88.091 67.0789C88.043 65.2005 87.0332 63.4786 85.4172 62.5199L85.4129 62.5269Z" fill="white"/>
</g>
<path d="M82.6975 67.1024C74.6254 64.6688 66.2795 62.9045 57.7427 62.5179C54.5956 68.4805 51.8142 74.3248 49.3733 80.477C45.8587 80.682 42.3445 80.5782 38.8419 81.1611C35.3295 81.671 31.8106 82.0702 28.3502 83.0302C25.5607 77.6041 22.4125 72.2096 18.941 67.0585C10.5747 69.7434 2.29733 73.0635 -5.49165 77.6058C-5.21628 84.1364 -4.639 90.4375 -3.68194 96.6467L-3.58737 96.6998L-26.9447 138.305C-26.869 138.348 -26.7926 138.391 -26.7269 138.45L-2.60155 155.228C-1.33782 156.107 -0.894531 157.771 -1.55307 159.162L-7.08748 170.863L14.2704 184.941L21.6371 175.41C22.5923 174.174 24.3085 173.824 25.6714 174.589L52.5809 189.696C53.943 190.461 54.538 192.108 53.9803 193.567L49.6793 204.819L72.8212 215.724L79.9281 204.906C80.7735 203.619 82.4233 203.132 83.8321 203.753L110.708 215.607C110.784 215.649 110.869 215.674 110.945 215.717L112.809 212.397L112.819 212.403L134.31 174.121L134.405 174.174C140.205 171.759 145.883 168.969 151.603 165.805C151.426 156.79 149.948 147.993 147.884 139.453C141.68 139.172 135.433 139.293 129.348 139.736C128.367 136.283 126.879 133.073 125.482 129.807C124.157 126.513 122.235 123.565 120.585 120.461C124.564 115.172 128.106 109.754 131.558 103.963C126.782 96.8766 120.931 90.6704 114.646 85.044C109.075 88.2525 103.524 91.998 98.3775 95.8167C95.924 93.8445 93.2981 92.1499 90.5927 90.5884L90.5398 90.5587L90.4882 90.5297C87.7413 89.0305 84.9298 87.6723 81.9677 86.6042C82.5494 80.2227 82.8584 73.5347 82.6922 67.1049L82.6975 67.1024ZM-30.0764 143.785C-31.4503 146.256 -32.9344 148.974 -33.2363 149.512C-46.835 173.735 -22.6425 202.627 15.4589 224.194L15.5525 224.246C53.8042 245.545 91.058 251.148 104.656 226.925C104.964 226.378 106.507 223.707 107.903 221.247L83.7353 210.588L76.5903 221.463C75.7294 222.774 74.0346 223.251 72.6154 222.583L44.3582 209.269L44.1601 209.157C42.81 208.399 42.2012 206.755 42.763 205.287L47.1369 193.846L24.9686 181.401L17.4787 191.092C16.4712 192.397 14.6258 192.705 13.253 191.796L-12.8275 174.605C-14.1368 173.741 -14.6126 172.047 -13.9419 170.629L-8.3769 158.866L-30.0764 143.785Z" fill="#478CBF"/>
<path d="M35.0706 140.674C30.3027 149.166 19.5592 152.183 11.0692 147.417C2.5835 142.653 -0.437468 131.909 4.33042 123.416C9.09514 114.929 19.8388 111.917 28.3246 116.681C36.8145 121.447 39.8354 132.186 35.0706 140.674Z" fill="white"/>
<path d="M46.4046 169.177C43.6718 167.643 42.5877 164.386 43.9814 161.903L51.9257 147.752C53.3182 145.272 56.6648 144.499 59.3976 146.033C62.1303 147.568 63.2182 150.83 61.8257 153.31L53.8815 167.461C52.4877 169.944 49.1373 170.711 46.4046 169.177Z" fill="white"/>
<path d="M76.6429 164.013C71.875 172.505 74.8939 183.248 83.3853 188.015C91.8703 192.779 102.615 189.763 107.383 181.27C112.148 172.783 109.126 162.043 100.641 157.279C92.1492 152.512 81.4076 155.525 76.6429 164.013Z" fill="white"/>
<path d="M26.3758 123.593C20.7412 120.43 13.6076 122.434 10.4451 128.067C7.28245 133.701 9.28771 140.831 14.9223 143.994C20.5598 147.159 27.6886 145.157 30.8512 139.524C34.0137 133.89 32.0133 126.758 26.3758 123.593ZM95.746 162.538C90.1128 159.375 82.9835 161.382 79.821 167.015C76.6584 172.649 78.6593 179.777 84.2925 182.939C89.9314 186.105 97.0587 184.102 100.221 178.468C103.384 172.835 101.385 165.703 95.746 162.538Z" fill="#414042"/>
<path d="M252.082 137.936C252.082 138.747 249.676 139.152 244.862 139.152C239.998 139.152 237.566 138.772 237.566 138.012V88.46C237.566 86.6867 238.504 85.8 240.378 85.8H254.894C268.22 85.8 274.882 90.9933 274.882 101.38C274.882 104.521 274.274 107.384 273.058 109.968C271.842 112.501 270.12 114.528 267.89 116.048L277.466 132.008C277.061 133.224 275.744 134.617 273.514 136.188C270.474 138.367 267.966 139.456 265.99 139.456C264.014 139.456 262.545 138.747 261.582 137.328L254.438 120.684H252.082V137.936ZM252.082 99.252V110.652H252.462C257.276 110.652 259.682 108.651 259.682 104.648C259.682 102.824 259.201 101.481 258.238 100.62C257.326 99.708 255.806 99.252 253.678 99.252H252.082ZM286.803 134.516C283.661 131.02 282.091 126.181 282.091 120C282.091 113.819 283.661 108.98 286.803 105.484C289.995 101.988 294.276 100.24 299.647 100.24C305.017 100.24 309.273 101.988 312.415 105.484C315.556 108.98 317.127 113.819 317.127 120C317.127 126.181 315.556 131.02 312.415 134.516C309.273 138.012 305.017 139.76 299.647 139.76C294.276 139.76 289.995 138.012 286.803 134.516ZM299.647 112.932C296.809 112.932 295.391 115.263 295.391 119.924C295.391 124.585 296.809 126.916 299.647 126.916C302.535 126.916 303.979 124.585 303.979 119.924C303.979 115.263 302.535 112.932 299.647 112.932ZM328.807 111.412C327.389 108.879 326.679 106.827 326.679 105.256C326.679 103.635 327.11 102.596 327.971 102.14C330.859 100.873 334.811 100.24 339.827 100.24C344.894 100.24 348.466 101.431 350.543 103.812C352.621 106.143 353.659 109.613 353.659 114.224V126.232H356.243C357.105 126.232 357.763 126.739 358.219 127.752C358.726 128.765 358.979 130.159 358.979 131.932C358.979 133.705 358.523 135.453 357.611 137.176C356.75 138.899 355.559 139.76 354.039 139.76C351.303 139.76 349.099 139.025 347.427 137.556C346.667 136.948 346.085 136.213 345.679 135.352C343.349 138.291 339.726 139.76 334.811 139.76C331.113 139.76 327.997 138.443 325.463 135.808C322.93 133.173 321.663 130.057 321.663 126.46C321.663 118.201 326.603 114.072 336.483 114.072H340.663V113.312C340.663 111.995 340.435 111.159 339.979 110.804C339.574 110.399 338.586 110.196 337.015 110.196C335.09 110.196 332.354 110.601 328.807 111.412ZM334.887 125.396C334.887 126.511 335.191 127.372 335.799 127.98C336.407 128.537 337.167 128.816 338.079 128.816C339.042 128.816 339.903 128.436 340.663 127.676V121.824H338.535C336.103 121.824 334.887 123.015 334.887 125.396ZM384.029 86.256C384.029 85.496 386.03 85.116 390.033 85.116C391.401 85.116 392.972 85.2173 394.745 85.42C396.569 85.572 397.481 85.8 397.481 86.104V126.156H400.141C401.408 126.156 402.244 127.296 402.649 129.576C402.75 130.235 402.801 131.147 402.801 132.312C402.801 133.427 402.446 134.795 401.737 136.416C400.724 138.645 399.102 139.76 396.873 139.76C395.201 139.76 393.706 139.431 392.389 138.772C391.122 138.113 390.261 137.429 389.805 136.72L389.121 135.732C386.334 138.417 382.838 139.76 378.633 139.76C374.428 139.76 370.83 138.012 367.841 134.516C364.852 131.02 363.357 126.156 363.357 119.924C363.357 113.641 364.928 108.803 368.069 105.408C371.21 101.963 375.137 100.24 379.849 100.24C381.217 100.24 382.61 100.392 384.029 100.696V86.256ZM381.521 112.4C378.684 112.4 377.265 114.959 377.265 120.076C377.265 122.66 377.67 124.535 378.481 125.7C379.292 126.815 380.178 127.372 381.141 127.372C382.154 127.372 383.117 126.941 384.029 126.08V113.16C383.168 112.653 382.332 112.4 381.521 112.4ZM442.618 138.544C442.618 139.152 440.49 139.456 436.234 139.456C431.167 139.253 428.634 138.924 428.634 138.468V111.564H424.758C423.745 111.564 423.238 109.816 423.238 106.32C423.238 105.408 423.314 104.293 423.466 102.976C423.669 101.659 424.049 101 424.606 101H428.634V94.312C428.634 93.2987 430.762 92.792 435.018 92.792C439.325 92.792 441.478 93.1973 441.478 94.008V98.872L441.554 101H448.014C448.875 101 449.306 102.773 449.306 106.32C449.306 109.867 448.875 111.64 448.014 111.64H442.618V138.544ZM457.907 134.516C454.765 131.02 453.195 126.181 453.195 120C453.195 113.819 454.765 108.98 457.907 105.484C461.099 101.988 465.38 100.24 470.751 100.24C476.121 100.24 480.377 101.988 483.519 105.484C486.66 108.98 488.231 113.819 488.231 120C488.231 126.181 486.66 131.02 483.519 134.516C480.377 138.012 476.121 139.76 470.751 139.76C465.38 139.76 461.099 138.012 457.907 134.516ZM470.751 112.932C467.913 112.932 466.495 115.263 466.495 119.924C466.495 124.585 467.913 126.916 470.751 126.916C473.639 126.916 475.083 124.585 475.083 119.924C475.083 115.263 473.639 112.932 470.751 112.932ZM539.468 123.116L539.62 112.78C539.62 112.071 540.354 111.615 541.824 111.412C543.293 111.159 544.509 111.032 545.472 111.032L548.436 111.26C550.361 111.564 551.324 112.096 551.324 112.856L551.02 136.644C550.006 137.353 547.954 138.063 544.864 138.772C541.824 139.431 538.328 139.76 534.376 139.76C527.029 139.76 521.101 137.379 516.592 132.616C512.082 127.853 509.828 120.861 509.828 111.64C509.828 103.787 512.032 97.4027 516.44 92.488C520.848 87.5733 526.953 85.116 534.756 85.116C538.302 85.116 541.494 85.4707 544.332 86.18C547.22 86.8387 549.196 87.7507 550.26 88.916C550.31 89.3213 550.336 90.0813 550.336 91.196C550.336 92.3107 549.956 93.9067 549.196 95.984C548.436 98.0107 547.574 99.5307 546.612 100.544C545.649 101.557 544.94 102.064 544.484 102.064C544.078 102.064 543.622 101.887 543.116 101.532C542.66 101.127 541.722 100.721 540.304 100.316C538.885 99.86 537.517 99.632 536.2 99.632C533.058 99.632 530.5 100.645 528.524 102.672C526.598 104.699 525.636 107.84 525.636 112.096C525.636 116.352 526.624 119.595 528.6 121.824C530.626 124.003 532.932 125.092 535.516 125.092C538.15 125.092 539.468 124.433 539.468 123.116ZM562.959 134.516C559.817 131.02 558.247 126.181 558.247 120C558.247 113.819 559.817 108.98 562.959 105.484C566.151 101.988 570.432 100.24 575.803 100.24C581.173 100.24 585.429 101.988 588.571 105.484C591.712 108.98 593.283 113.819 593.283 120C593.283 126.181 591.712 131.02 588.571 134.516C585.429 138.012 581.173 139.76 575.803 139.76C570.432 139.76 566.151 138.012 562.959 134.516ZM575.803 112.932C572.965 112.932 571.547 115.263 571.547 119.924C571.547 124.585 572.965 126.916 575.803 126.916C578.691 126.916 580.135 124.585 580.135 119.924C580.135 115.263 578.691 112.932 575.803 112.932ZM619.404 86.256C619.404 85.496 621.405 85.116 625.408 85.116C626.776 85.116 628.346 85.2173 630.12 85.42C631.944 85.572 632.856 85.8 632.856 86.104V126.156H635.516C636.782 126.156 637.618 127.296 638.024 129.576C638.125 130.235 638.176 131.147 638.176 132.312C638.176 133.427 637.821 134.795 637.112 136.416C636.098 138.645 634.477 139.76 632.248 139.76C630.576 139.76 629.081 139.431 627.764 138.772C626.497 138.113 625.636 137.429 625.18 136.72L624.496 135.732C621.709 138.417 618.213 139.76 614.008 139.76C609.802 139.76 606.205 138.012 603.216 134.516C600.226 131.02 598.732 126.156 598.732 119.924C598.732 113.641 600.302 108.803 603.444 105.408C606.585 101.963 610.512 100.24 615.224 100.24C616.592 100.24 617.985 100.392 619.404 100.696V86.256ZM616.896 112.4C614.058 112.4 612.64 114.959 612.64 120.076C612.64 122.66 613.045 124.535 613.856 125.7C614.666 126.815 615.553 127.372 616.516 127.372C617.529 127.372 618.492 126.941 619.404 126.08V113.16C618.542 112.653 617.706 112.4 616.896 112.4ZM647.936 134.516C644.795 131.02 643.224 126.181 643.224 120C643.224 113.819 644.795 108.98 647.936 105.484C651.128 101.988 655.41 100.24 660.78 100.24C666.151 100.24 670.407 101.988 673.548 105.484C676.69 108.98 678.26 113.819 678.26 120C678.26 126.181 676.69 131.02 673.548 134.516C670.407 138.012 666.151 139.76 660.78 139.76C655.41 139.76 651.128 138.012 647.936 134.516ZM660.78 112.932C657.943 112.932 656.524 115.263 656.524 119.924C656.524 124.585 657.943 126.916 660.78 126.916C663.668 126.916 665.112 124.585 665.112 119.924C665.112 115.263 663.668 112.932 660.78 112.932ZM702.633 138.544C702.633 139.152 700.505 139.456 696.249 139.456C691.182 139.253 688.649 138.924 688.649 138.468V111.564H684.773C683.76 111.564 683.253 109.816 683.253 106.32C683.253 105.408 683.329 104.293 683.481 102.976C683.684 101.659 684.064 101 684.621 101H688.649V94.312C688.649 93.2987 690.777 92.792 695.033 92.792C699.34 92.792 701.493 93.1973 701.493 94.008V98.872L701.569 101H708.029C708.89 101 709.321 102.773 709.321 106.32C709.321 109.867 708.89 111.64 708.029 111.64H702.633V138.544Z" fill="white"/>
<path d="M254.558 187.278C254.558 189.913 253.418 191.914 251.138 193.282C252.379 193.738 253.418 194.523 254.254 195.638C255.09 196.753 255.508 198.336 255.508 200.388C255.508 202.415 254.748 204.023 253.228 205.214C251.733 206.405 249.58 207 246.768 207H237.8C237.369 207 237.015 206.861 236.736 206.582C236.457 206.278 236.318 205.885 236.318 205.404V181.084C236.318 180.805 236.356 180.628 236.432 180.552C236.533 180.451 236.723 180.4 237.002 180.4H245.666C251.594 180.4 254.558 182.693 254.558 187.278ZM243.614 186.556V191.534H243.804C246.236 191.534 247.452 190.723 247.452 189.102C247.452 188.215 247.211 187.569 246.73 187.164C246.274 186.759 245.501 186.556 244.412 186.556H243.614ZM243.614 196.018V200.958H244.298C245.387 200.958 246.185 200.755 246.692 200.35C247.199 199.945 247.452 199.299 247.452 198.412C247.452 197.525 247.211 196.905 246.73 196.55C246.274 196.195 245.501 196.018 244.412 196.018H243.614ZM257.703 188.19C257.703 187.911 258.855 187.772 261.161 187.772C263.491 187.772 264.695 187.899 264.771 188.152L267.507 197.12L270.129 188.076C270.23 187.873 271.015 187.772 272.485 187.772C275.854 187.772 277.463 187.937 277.311 188.266L268.381 213.688C268.355 213.84 267.659 213.916 266.291 213.916C264.948 213.916 263.694 213.865 262.529 213.764C261.363 213.688 260.806 213.587 260.857 213.46L264.163 205.48L257.703 188.19ZM309.139 206.164C309.139 206.696 307.948 206.962 305.567 206.962C303.185 206.962 301.893 206.772 301.691 206.392L295.345 194.536V206.354C295.345 206.81 294.167 207.038 291.811 207.038C289.48 207.038 288.315 206.81 288.315 206.354V180.932C288.315 180.552 289.315 180.362 291.317 180.362C292.102 180.362 293.014 180.438 294.053 180.59C295.117 180.717 295.763 180.97 295.991 181.35L302.071 193.054V181.122C302.071 180.641 303.249 180.4 305.605 180.4C307.961 180.4 309.139 180.641 309.139 181.122V206.164ZM320.479 206.772C320.479 206.975 319.314 207.076 316.983 207.076C314.678 207.076 313.525 206.987 313.525 206.81V188.152C313.525 187.975 314.678 187.886 316.983 187.886C319.314 187.886 320.479 187.962 320.479 188.114V206.772ZM320.479 185.872C320.479 186.049 319.314 186.138 316.983 186.138C314.678 186.138 313.525 186.062 313.525 185.91V180.438C313.525 180.185 314.678 180.058 316.983 180.058C319.314 180.058 320.479 180.134 320.479 180.286V185.872ZM331.668 207C329.211 207 327.311 206.215 325.968 204.644C324.625 203.048 323.954 200.705 323.954 197.614C323.954 194.498 324.828 192.066 326.576 190.318C328.349 188.545 330.693 187.658 333.606 187.658C336.545 187.658 338.964 188.304 340.864 189.596V208.52C340.864 210.395 340.104 211.826 338.584 212.814C337.064 213.827 335.113 214.334 332.732 214.334C330.351 214.334 328.223 214.03 326.348 213.422C326.095 212.814 325.968 212.269 325.968 211.788C325.968 210.167 326.234 208.976 326.766 208.216C328.463 208.951 330.275 209.318 332.2 209.318C333.593 209.318 334.29 208.824 334.29 207.836V206.696C333.201 206.899 332.327 207 331.668 207ZM333.416 193.852C331.719 193.852 330.87 195.131 330.87 197.69C330.87 199.286 331.199 200.325 331.858 200.806C332.289 201.135 332.719 201.3 333.15 201.3C333.581 201.3 333.961 201.262 334.29 201.186V193.966C333.986 193.89 333.695 193.852 333.416 193.852ZM351.376 206.734C351.376 206.962 350.312 207.076 348.184 207.076C346.081 207.076 345.03 206.899 345.03 206.544V180.514C345.03 180.337 345.422 180.21 346.208 180.134C346.993 180.058 347.652 180.02 348.184 180.02C350.312 180.02 351.376 180.248 351.376 180.704V188.304C352.794 187.873 353.871 187.658 354.606 187.658C356.531 187.658 358.051 188.177 359.166 189.216C360.28 190.229 360.838 192.129 360.838 194.916V206.696C360.838 206.924 359.85 207.038 357.874 207.038C355.644 206.962 354.53 206.835 354.53 206.658V195.486C354.53 194.245 354.124 193.624 353.314 193.624C352.756 193.624 352.11 193.89 351.376 194.422V206.734ZM373.567 206.772C373.567 207.076 372.503 207.228 370.375 207.228C367.842 207.127 366.575 206.962 366.575 206.734V193.282H364.637C364.13 193.282 363.877 192.408 363.877 190.66C363.877 190.204 363.915 189.647 363.991 188.988C364.092 188.329 364.282 188 364.561 188H366.575V184.656C366.575 184.149 367.639 183.896 369.767 183.896C371.92 183.896 372.997 184.099 372.997 184.504V186.936L373.035 188H376.265C376.696 188 376.911 188.887 376.911 190.66C376.911 192.433 376.696 193.32 376.265 193.32H373.567V206.772ZM386.493 206.696C386.493 206.924 385.201 207.038 382.617 207.038C380.59 207.013 379.577 206.911 379.577 206.734V180.856C379.577 180.476 380.806 180.286 383.263 180.286C385.416 180.362 386.493 180.489 386.493 180.666V206.696ZM397.645 206.772C397.645 206.975 396.479 207.076 394.149 207.076C391.843 207.076 390.691 206.987 390.691 206.81V188.152C390.691 187.975 391.843 187.886 394.149 187.886C396.479 187.886 397.645 187.962 397.645 188.114V206.772ZM397.645 185.872C397.645 186.049 396.479 186.138 394.149 186.138C391.843 186.138 390.691 186.062 390.691 185.91V180.438C390.691 180.185 391.843 180.058 394.149 180.058C396.479 180.058 397.645 180.134 397.645 180.286V185.872ZM408.833 207C406.376 207 404.476 206.215 403.133 204.644C401.791 203.048 401.119 200.705 401.119 197.614C401.119 194.498 401.993 192.066 403.741 190.318C405.515 188.545 407.858 187.658 410.771 187.658C413.71 187.658 416.129 188.304 418.029 189.596V208.52C418.029 210.395 417.269 211.826 415.749 212.814C414.229 213.827 412.279 214.334 409.897 214.334C407.516 214.334 405.388 214.03 403.513 213.422C403.26 212.814 403.133 212.269 403.133 211.788C403.133 210.167 403.399 208.976 403.931 208.216C405.629 208.951 407.44 209.318 409.365 209.318C410.759 209.318 411.455 208.824 411.455 207.836V206.696C410.366 206.899 409.492 207 408.833 207ZM410.581 193.852C408.884 193.852 408.035 195.131 408.035 197.69C408.035 199.286 408.365 200.325 409.023 200.806C409.454 201.135 409.885 201.3 410.315 201.3C410.746 201.3 411.126 201.262 411.455 201.186V193.966C411.151 193.89 410.86 193.852 410.581 193.852ZM428.541 206.734C428.541 206.962 427.477 207.076 425.349 207.076C423.246 207.076 422.195 206.899 422.195 206.544V180.514C422.195 180.337 422.588 180.21 423.373 180.134C424.158 180.058 424.817 180.02 425.349 180.02C427.477 180.02 428.541 180.248 428.541 180.704V188.304C429.96 187.873 431.036 187.658 431.771 187.658C433.696 187.658 435.216 188.177 436.331 189.216C437.446 190.229 438.003 192.129 438.003 194.916V206.696C438.003 206.924 437.015 207.038 435.039 207.038C432.81 206.962 431.695 206.835 431.695 206.658V195.486C431.695 194.245 431.29 193.624 430.479 193.624C429.922 193.624 429.276 193.89 428.541 194.422V206.734ZM450.732 206.772C450.732 207.076 449.668 207.228 447.54 207.228C445.007 207.127 443.74 206.962 443.74 206.734V193.282H441.802C441.295 193.282 441.042 192.408 441.042 190.66C441.042 190.204 441.08 189.647 441.156 188.988C441.257 188.329 441.447 188 441.726 188H443.74V184.656C443.74 184.149 444.804 183.896 446.932 183.896C449.085 183.896 450.162 184.099 450.162 184.504V186.936L450.2 188H453.43C453.861 188 454.076 188.887 454.076 190.66C454.076 192.433 453.861 193.32 453.43 193.32H450.732V206.772ZM465.842 197.728C466.324 198.108 467.147 198.627 468.312 199.286C469.503 199.945 470.63 200.274 471.694 200.274C472.784 200.274 473.328 199.856 473.328 199.02C473.328 198.64 473.176 198.311 472.872 198.032C472.568 197.728 472.011 197.386 471.2 197.006C470.39 196.626 469.782 196.335 469.376 196.132C468.971 195.904 468.426 195.549 467.742 195.068C467.084 194.561 466.577 194.042 466.222 193.51C465.209 192.066 464.702 190.229 464.702 188C464.702 185.771 465.526 183.896 467.172 182.376C468.844 180.831 471.023 180.058 473.708 180.058C475.532 180.058 477.217 180.261 478.762 180.666C480.308 181.046 481.106 181.553 481.156 182.186C481.156 182.262 481.156 182.338 481.156 182.414C481.156 183.301 480.878 184.428 480.32 185.796C479.763 187.139 479.37 187.886 479.142 188.038C477.521 187.202 476.064 186.784 474.772 186.784C473.506 186.784 472.872 187.24 472.872 188.152C472.872 188.709 473.341 189.203 474.278 189.634C474.481 189.735 474.772 189.875 475.152 190.052C475.532 190.229 475.963 190.445 476.444 190.698C476.951 190.926 477.483 191.23 478.04 191.61C478.623 191.965 479.244 192.446 479.902 193.054C481.245 194.321 481.916 195.993 481.916 198.07C481.916 200.781 481.169 202.997 479.674 204.72C478.18 206.443 475.874 207.329 472.758 207.38C471.238 207.38 469.858 207.253 468.616 207C467.4 206.747 466.336 206.253 465.424 205.518C464.512 204.783 464.056 203.897 464.056 202.858C464.056 201.819 464.246 200.793 464.626 199.78C465.006 198.741 465.412 198.057 465.842 197.728ZM494.352 206.772C494.352 207.076 493.288 207.228 491.16 207.228C488.627 207.127 487.36 206.962 487.36 206.734V193.282H485.422C484.915 193.282 484.662 192.408 484.662 190.66C484.662 190.204 484.7 189.647 484.776 188.988C484.877 188.329 485.067 188 485.346 188H487.36V184.656C487.36 184.149 488.424 183.896 490.552 183.896C492.705 183.896 493.782 184.099 493.782 184.504V186.936L493.82 188H497.05C497.481 188 497.696 188.887 497.696 190.66C497.696 192.433 497.481 193.32 497.05 193.32H494.352V206.772ZM500.172 188.228C500.172 187.949 501.262 187.81 503.44 187.81C505.619 187.81 506.708 187.949 506.708 188.228V199.324C506.708 200.591 507.114 201.224 507.924 201.224C508.532 201.224 509.216 200.958 509.976 200.426V188.228C509.976 187.975 511.053 187.848 513.206 187.848C515.36 187.848 516.436 187.975 516.436 188.228V200.692H517.424C518.286 200.692 518.716 201.515 518.716 203.162C518.716 203.998 518.539 204.847 518.184 205.708C517.678 206.823 516.994 207.38 516.132 207.38C514.435 207.38 513.181 206.683 512.37 205.29L512.332 205.328C510.787 206.696 509.128 207.38 507.354 207.38C504.897 207.38 503.086 206.772 501.92 205.556C500.755 204.315 500.172 202.275 500.172 199.438V188.228ZM531.406 180.628C531.406 180.248 532.407 180.058 534.408 180.058C535.092 180.058 535.877 180.109 536.764 180.21C537.676 180.286 538.132 180.4 538.132 180.552V200.578H539.462C540.095 200.578 540.513 201.148 540.716 202.288C540.767 202.617 540.792 203.073 540.792 203.656C540.792 204.213 540.615 204.897 540.26 205.708C539.753 206.823 538.943 207.38 537.828 207.38C536.992 207.38 536.245 207.215 535.586 206.886C534.953 206.557 534.522 206.215 534.294 205.86L533.952 205.366C532.559 206.709 530.811 207.38 528.708 207.38C526.605 207.38 524.807 206.506 523.312 204.758C521.817 203.01 521.07 200.578 521.07 197.462C521.07 194.321 521.855 191.901 523.426 190.204C524.997 188.481 526.96 187.62 529.316 187.62C530 187.62 530.697 187.696 531.406 187.848V180.628ZM530.152 193.7C528.733 193.7 528.024 194.979 528.024 197.538C528.024 198.83 528.227 199.767 528.632 200.35C529.037 200.907 529.481 201.186 529.962 201.186C530.469 201.186 530.95 200.971 531.406 200.54V194.08C530.975 193.827 530.557 193.7 530.152 193.7ZM550.992 206.772C550.992 206.975 549.827 207.076 547.496 207.076C545.191 207.076 544.038 206.987 544.038 206.81V188.152C544.038 187.975 545.191 187.886 547.496 187.886C549.827 187.886 550.992 187.962 550.992 188.114V206.772ZM550.992 185.872C550.992 186.049 549.827 186.138 547.496 186.138C545.191 186.138 544.038 186.062 544.038 185.91V180.438C544.038 180.185 545.191 180.058 547.496 180.058C549.827 180.058 550.992 180.134 550.992 180.286V185.872ZM556.823 204.758C555.252 203.01 554.467 200.591 554.467 197.5C554.467 194.409 555.252 191.99 556.823 190.242C558.419 188.494 560.56 187.62 563.245 187.62C565.93 187.62 568.058 188.494 569.629 190.242C571.2 191.99 571.985 194.409 571.985 197.5C571.985 200.591 571.2 203.01 569.629 204.758C568.058 206.506 565.93 207.38 563.245 207.38C560.56 207.38 558.419 206.506 556.823 204.758ZM563.245 193.966C561.826 193.966 561.117 195.131 561.117 197.462C561.117 199.793 561.826 200.958 563.245 200.958C564.689 200.958 565.411 199.793 565.411 197.462C565.411 195.131 564.689 193.966 563.245 193.966ZM576.229 200.16C578.281 201.401 579.903 202.022 581.093 202.022C581.853 202.022 582.233 201.756 582.233 201.224C582.233 200.844 581.575 200.35 580.257 199.742C577.091 198.45 575.507 196.335 575.507 193.396C575.507 191.521 576.191 190.09 577.559 189.102C578.927 188.114 580.561 187.62 582.461 187.62C584.387 187.62 586.008 187.823 587.325 188.228C588.668 188.633 589.339 189.165 589.339 189.824C589.339 190.381 589.061 191.116 588.503 192.028C587.971 192.94 587.604 193.434 587.401 193.51C586.312 192.902 585.134 192.598 583.867 192.598C583.183 192.598 582.841 192.839 582.841 193.32C582.841 193.624 582.968 193.89 583.221 194.118C583.5 194.321 583.994 194.587 584.703 194.916C585.413 195.22 585.995 195.499 586.451 195.752C586.933 196.005 587.465 196.36 588.047 196.816C589.263 197.779 589.871 199.033 589.871 200.578C589.871 202.605 589.2 204.251 587.857 205.518C586.515 206.759 584.488 207.38 581.777 207.38C579.979 207.38 578.345 207.076 576.875 206.468C575.406 205.86 574.671 205.024 574.671 203.96C574.671 203.251 574.836 202.503 575.165 201.718C575.52 200.933 575.875 200.413 576.229 200.16Z" fill="white"/>
</g>
<defs>
<filter id="filter0_d_120_32" x="-42.4854" y="57.1784" width="212.482" height="207.191" filterUnits="userSpaceOnUse" color-interpolation-filters="sRGB">
<feFlood flood-opacity="0" result="BackgroundImageFix"/>
<feColorMatrix in="SourceAlpha" type="matrix" values="0 0 0 0 0 0 0 0 0 0 0 0 0 0 0 0 0 0 127 0" result="hardAlpha"/>
<feOffset dx="9" dy="12"/>
<feGaussianBlur stdDeviation="2"/>
<feComposite in2="hardAlpha" operator="out"/>
<feColorMatrix type="matrix" values="0 0 0 0 0 0 0 0 0 0 0 0 0 0 0 0 0 0 0.25 0"/>
<feBlend mode="normal" in2="BackgroundImageFix" result="effect1_dropShadow_120_32"/>
<feBlend mode="normal" in="SourceGraphic" in2="effect1_dropShadow_120_32" result="shape"/>
</filter>
<clipPath id="clip0_120_32">
<rect width="800" height="300" fill="white"/>
</clipPath>
</defs>
</svg>
