<svg width="48" height="16" viewBox="0 0 48 16" fill="none" xmlns="http://www.w3.org/2000/svg">
<rect x="1" y="1" width="14" height="1" fill="#939393"/>
<rect x="2" y="2" width="12" height="1" fill="#939393"/>
<rect x="3" y="1" width="10" height="13" fill="#939393"/>
<rect x="2" y="4" width="12" height="7" fill="#939393"/>
<rect x="1" y="12" width="14" height="2" fill="#939393"/>
<rect x="1" y="13" width="14" height="1" fill="black" fill-opacity="0.1"/>
<rect x="3" y="5" width="4" height="1" fill="black" fill-opacity="0.1"/>
<rect x="9" y="5" width="4" height="1" fill="black" fill-opacity="0.1"/>
<rect x="10" y="6" width="1" height="1" fill="black" fill-opacity="0.83"/>
<rect x="5" y="6" width="1" height="1" fill="black" fill-opacity="0.83"/>
<rect x="5" y="9" width="6" height="2" fill="black" fill-opacity="0.1"/>
<rect x="17" y="1" width="14" height="1" fill="#939393"/>
<rect x="18" y="2" width="12" height="1" fill="#939393"/>
<rect x="19" y="1" width="10" height="13" fill="#939393"/>
<rect x="18" y="4" width="12" height="7" fill="#939393"/>
<rect x="17" y="12" width="14" height="2" fill="#939393"/>
<rect x="17" y="13" width="14" height="1" fill="black" fill-opacity="0.1"/>
<rect x="19" y="4" width="4" height="1" fill="black" fill-opacity="0.1"/>
<rect x="25" y="5" width="4" height="1" fill="black" fill-opacity="0.1"/>
<rect x="26" y="6" width="1" height="1" fill="black" fill-opacity="0.83"/>
<rect x="21" y="6" width="1" height="1" fill="black" fill-opacity="0.83"/>
<rect x="21" y="9" width="6" height="2" fill="black" fill-opacity="0.1"/>
<rect x="33" y="1" width="14" height="1" fill="#939393"/>
<rect x="34" y="2" width="12" height="1" fill="#939393"/>
<rect x="35" y="1" width="10" height="13" fill="#939393"/>
<rect x="34" y="4" width="12" height="7" fill="#939393"/>
<rect x="33" y="12" width="14" height="2" fill="#939393"/>
<rect x="33" y="13" width="14" height="1" fill="black" fill-opacity="0.1"/>
<rect x="35" y="5" width="4" height="1" fill="black" fill-opacity="0.1"/>
<rect x="41" y="5" width="4" height="1" fill="black" fill-opacity="0.1"/>
<rect x="42" y="6" width="1" height="1" fill="black" fill-opacity="0.83"/>
<rect x="37" y="6" width="1" height="1" fill="black" fill-opacity="0.83"/>
<rect x="37" y="8" width="3" height="2" fill="black" fill-opacity="0.1"/>
</svg>
