<svg width="48" height="16" viewBox="0 0 48 16" fill="none" xmlns="http://www.w3.org/2000/svg">
<g clip-path="url(#clip0_69_233)">
<rect x="4" y="4" width="2" height="1" fill="white" fill-opacity="0.5"/>
<rect x="10" y="4" width="2" height="1" fill="white" fill-opacity="0.5"/>
<rect x="6" y="10" width="4" height="1" fill="white" fill-opacity="0.5"/>
<rect x="5" y="9" width="1" height="1" fill="white" fill-opacity="0.5"/>
<rect x="10" y="9" width="1" height="1" fill="white" fill-opacity="0.5"/>
<rect x="5" y="5" width="1" height="1" fill="white" fill-opacity="0.5"/>
<rect x="10" y="5" width="1" height="1" fill="white" fill-opacity="0.5"/>
<rect x="4" y="6" width="1" height="3" fill="white" fill-opacity="0.5"/>
<rect x="11" y="6" width="1" height="3" fill="white" fill-opacity="0.5"/>
</g>
<g clip-path="url(#clip1_69_233)">
<rect x="20" y="4" width="2" height="1" fill="white" fill-opacity="0.5"/>
<rect x="26" y="4" width="2" height="1" fill="white" fill-opacity="0.5"/>
<rect x="22" y="10" width="4" height="1" fill="white" fill-opacity="0.5"/>
<rect x="21" y="9" width="1" height="1" fill="white" fill-opacity="0.5"/>
<rect x="26" y="9" width="1" height="1" fill="white" fill-opacity="0.5"/>
<rect x="21" y="5" width="1" height="1" fill="white" fill-opacity="0.5"/>
<rect x="26" y="5" width="1" height="1" fill="white" fill-opacity="0.5"/>
<rect x="20" y="6" width="1" height="3" fill="white" fill-opacity="0.5"/>
<rect x="27" y="6" width="1" height="3" fill="white" fill-opacity="0.5"/>
</g>
<g clip-path="url(#clip2_69_233)">
<rect x="36" y="4" width="2" height="1" fill="white" fill-opacity="0.5"/>
<rect x="42" y="4" width="2" height="1" fill="white" fill-opacity="0.5"/>
<rect x="38" y="10" width="4" height="1" fill="white" fill-opacity="0.5"/>
<rect x="37" y="9" width="1" height="1" fill="white" fill-opacity="0.5"/>
<rect x="42" y="9" width="1" height="1" fill="white" fill-opacity="0.5"/>
<rect x="37" y="5" width="1" height="1" fill="white" fill-opacity="0.5"/>
<rect x="42" y="5" width="1" height="1" fill="white" fill-opacity="0.5"/>
<rect x="36" y="6" width="1" height="3" fill="white" fill-opacity="0.5"/>
<rect x="43" y="6" width="1" height="3" fill="white" fill-opacity="0.5"/>
</g>
<defs>
<clipPath id="clip0_69_233">
<rect width="16" height="16" fill="white"/>
</clipPath>
<clipPath id="clip1_69_233">
<rect width="16" height="16" fill="white" transform="translate(16)"/>
</clipPath>
<clipPath id="clip2_69_233">
<rect width="16" height="16" fill="white" transform="translate(32)"/>
</clipPath>
</defs>
</svg>
