<svg width="48" height="16" viewBox="0 0 48 16" fill="none" xmlns="http://www.w3.org/2000/svg">
<g clip-path="url(#clip0_69_163)">
<rect x="18" y="3" width="12" height="9" fill="white"/>
<rect x="19" y="2" width="10" height="11" fill="white"/>
<rect x="19" y="12" width="10" height="1" fill="#B9B9B9"/>
<rect x="18" y="11" width="1" height="1" fill="#B9B9B9"/>
<rect x="29" y="11" width="1" height="1" fill="#B9B9B9"/>
</g>
<g clip-path="url(#clip1_69_163)">
<rect x="2" y="3" width="12" height="9" fill="white"/>
<rect x="3" y="2" width="10" height="11" fill="white"/>
<rect x="3" y="12" width="10" height="1" fill="#B9B9B9"/>
<rect x="2" y="11" width="1" height="1" fill="#B9B9B9"/>
<rect x="13" y="11" width="1" height="1" fill="#B9B9B9"/>
<rect x="3" y="2" width="1" height="1" fill="#B9B9B9"/>
<rect x="12" y="2" width="1" height="1" fill="#B9B9B9"/>
</g>
<g clip-path="url(#clip2_69_163)">
<rect x="34" y="3" width="12" height="9" fill="white"/>
<rect x="35" y="2" width="10" height="11" fill="white"/>
</g>
<defs>
<clipPath id="clip0_69_163">
<rect width="16" height="16" fill="white" transform="translate(16)"/>
</clipPath>
<clipPath id="clip1_69_163">
<rect width="16" height="16" fill="white"/>
</clipPath>
<clipPath id="clip2_69_163">
<rect width="16" height="16" fill="white" transform="translate(32)"/>
</clipPath>
</defs>
</svg>
