<svg width="48" height="16" viewBox="0 0 48 16" fill="none" xmlns="http://www.w3.org/2000/svg">
<g clip-path="url(#clip0_63_431)">
<rect x="17" y="2" width="14" height="11" fill="#939393"/>
<rect x="18" y="1" width="12" height="13" fill="#939393"/>
<rect width="10" height="1" transform="matrix(1 0 0 -1 19 14)" fill="black" fill-opacity="0.13"/>
<rect width="1" height="1" transform="matrix(1 0 0 -1 29 13)" fill="black" fill-opacity="0.13"/>
<rect width="1" height="6" transform="matrix(1 0 0 -1 30 9)" fill="black" fill-opacity="0.13"/>
<rect width="1" height="1" transform="matrix(1 0 0 -1 18 13)" fill="black" fill-opacity="0.13"/>
<rect width="1" height="8" transform="matrix(1 0 0 -1 17 11)" fill="black" fill-opacity="0.13"/>
</g>
<g clip-path="url(#clip1_63_431)">
<rect x="1" y="2" width="14" height="11" fill="#939393"/>
<rect x="2" y="1" width="12" height="13" fill="#939393"/>
<rect x="4" y="1" width="8" height="1" fill="#393939" fill-opacity="0.15"/>
<rect width="10" height="1" transform="matrix(1 0 0 -1 3 14)" fill="black" fill-opacity="0.13"/>
<rect width="1" height="1" transform="matrix(1 0 0 -1 13 13)" fill="black" fill-opacity="0.13"/>
<rect width="1" height="6" transform="matrix(1 0 0 -1 14 9)" fill="black" fill-opacity="0.13"/>
<rect width="1" height="1" transform="matrix(1 0 0 -1 2 13)" fill="black" fill-opacity="0.13"/>
<rect width="1" height="8" transform="matrix(1 0 0 -1 1 11)" fill="black" fill-opacity="0.13"/>
</g>
<g clip-path="url(#clip2_63_431)">
<rect x="33" y="2" width="14" height="11" fill="#939393"/>
<rect x="34" y="1" width="12" height="13" fill="#939393"/>
<rect width="10" height="1" transform="matrix(1 0 0 -1 35 14)" fill="black" fill-opacity="0.13"/>
<rect width="1" height="1" transform="matrix(1 0 0 -1 45 13)" fill="black" fill-opacity="0.13"/>
<rect width="1" height="6" transform="matrix(1 0 0 -1 46 9)" fill="black" fill-opacity="0.13"/>
<rect width="1" height="1" transform="matrix(1 0 0 -1 34 13)" fill="black" fill-opacity="0.13"/>
<rect width="1" height="8" transform="matrix(1 0 0 -1 33 11)" fill="black" fill-opacity="0.13"/>
</g>
<defs>
<clipPath id="clip0_63_431">
<rect width="16" height="16" fill="white" transform="translate(16)"/>
</clipPath>
<clipPath id="clip1_63_431">
<rect width="16" height="16" fill="white"/>
</clipPath>
<clipPath id="clip2_63_431">
<rect width="16" height="16" fill="white" transform="translate(32)"/>
</clipPath>
</defs>
</svg>
