<svg width="48" height="16" viewBox="0 0 48 16" fill="none" xmlns="http://www.w3.org/2000/svg">
<rect x="1" y="2" width="14" height="13" fill="#7A7979"/>
<rect x="1" y="10" width="14" height="5" fill="black" fill-opacity="0.19"/>
<rect x="4" width="8" height="2" fill="#7A7979"/>
<rect x="4" width="8" height="2" fill="black" fill-opacity="0.19"/>
<rect x="1" y="2" width="3" height="2" fill="black" fill-opacity="0.19"/>
<rect x="12" y="2" width="3" height="2" fill="black" fill-opacity="0.19"/>
<rect x="6" y="8" width="4" height="1" fill="black" fill-opacity="0.09"/>
<rect x="17" y="2" width="14" height="13" fill="#7A7979"/>
<rect x="17" y="10" width="14" height="5" fill="black" fill-opacity="0.19"/>
<rect x="20" width="8" height="2" fill="#7A7979"/>
<rect x="20" width="8" height="2" fill="black" fill-opacity="0.19"/>
<rect x="17" y="2" width="3" height="2" fill="black" fill-opacity="0.19"/>
<rect x="28" y="2" width="3" height="2" fill="black" fill-opacity="0.19"/>
<rect x="22" y="8" width="4" height="1" fill="black" fill-opacity="0.09"/>
<rect x="33" y="2" width="14" height="13" fill="#7A7979"/>
<rect x="33" y="10" width="14" height="5" fill="black" fill-opacity="0.19"/>
<rect x="36" width="8" height="2" fill="#7A7979"/>
<rect x="36" width="8" height="2" fill="black" fill-opacity="0.19"/>
<rect x="33" y="2" width="3" height="2" fill="black" fill-opacity="0.19"/>
<rect x="44" y="2" width="3" height="2" fill="black" fill-opacity="0.19"/>
<rect x="38" y="8" width="4" height="1" fill="black" fill-opacity="0.09"/>
</svg>
