<svg width="48" height="16" viewBox="0 0 48 16" fill="none" xmlns="http://www.w3.org/2000/svg">
<rect x="6" y="8" width="4" height="3" fill="#ABABAB"/>
<rect x="1" y="9" width="5" height="1" fill="#6D6D6D" fill-opacity="0.39"/>
<rect x="10" y="9" width="5" height="1" fill="#6D6D6D" fill-opacity="0.39"/>
<rect x="6" y="8" width="4" height="1" fill="black" fill-opacity="0.09"/>
<rect x="7" y="9" width="2" height="1" fill="black" fill-opacity="0.72"/>
<rect x="22" y="8" width="4" height="3" fill="#8C8C8C"/>
<rect x="17" y="9" width="5" height="1" fill="#6D6D6D" fill-opacity="0.39"/>
<rect x="26" y="9" width="5" height="1" fill="#6D6D6D" fill-opacity="0.39"/>
<rect x="22" y="8" width="4" height="1" fill="black" fill-opacity="0.09"/>
<rect x="23" y="9" width="2" height="1" fill="black" fill-opacity="0.72"/>
<rect x="38" y="8" width="4" height="3" fill="#8C8C8C"/>
<rect x="33" y="9" width="5" height="1" fill="#ACACAC"/>
<rect x="42" y="9" width="5" height="1" fill="#ACACAC"/>
<rect x="38" y="8" width="4" height="1" fill="black" fill-opacity="0.09"/>
<rect x="39" y="9" width="2" height="1" fill="black" fill-opacity="0.72"/>
</svg>
