<svg width="48" height="16" viewBox="0 0 48 16" fill="none" xmlns="http://www.w3.org/2000/svg">
<rect x="3" y="6" width="3" height="2" fill="#FAFAFA"/>
<rect x="10" y="6" width="3" height="2" fill="#FAFAFA"/>
<rect x="5" y="5" width="6" height="1" fill="#FAFAFA"/>
<rect x="1" y="3" width="6" height="4" fill="#FAFAFA"/>
<rect x="9" y="3" width="6" height="4" fill="#FAFAFA"/>
<rect x="10" y="2" width="4" height="4" fill="#FAFAFA"/>
<rect x="2" y="2" width="4" height="4" fill="#FAFAFA"/>
<rect x="1" y="7" width="5" height="2" fill="#FAFAFA"/>
<rect x="10" y="7" width="5" height="2" fill="#FAFAFA"/>
<rect x="6" y="5" width="4" height="4" fill="#FAFAFA"/>
<rect x="3" y="9" width="3" height="2" fill="#FAFAFA"/>
<rect x="10" y="9" width="3" height="2" fill="#FAFAFA"/>
<rect x="5" y="9" width="6" height="2" fill="#FAFAFA"/>
<rect x="7" y="12" width="2" height="2" fill="#FAFAFA"/>
<rect x="5" y="11" width="6" height="2" fill="#FAFAFA"/>
<rect x="19" y="6" width="3" height="2" fill="#FAFAFA"/>
<rect x="26" y="6" width="3" height="2" fill="#FAFAFA"/>
<rect x="21" y="5" width="6" height="1" fill="#FAFAFA"/>
<rect x="18" y="4" width="5" height="3" fill="#FAFAFA"/>
<rect x="25" y="4" width="5" height="3" fill="#FAFAFA"/>
<rect x="26" y="3" width="3" height="3" fill="#FAFAFA"/>
<rect x="19" y="3" width="3" height="3" fill="#FAFAFA"/>
<rect x="18" y="7" width="4" height="2" fill="#FAFAFA"/>
<rect x="26" y="7" width="4" height="2" fill="#FAFAFA"/>
<rect x="27" y="5" width="1" height="2" fill="white"/>
<rect x="27" y="6" width="1" height="1" fill="#E8E5E5"/>
<rect x="22" y="5" width="4" height="4" fill="#FAFAFA"/>
<rect x="19" y="9" width="3" height="2" fill="#FAFAFA"/>
<rect x="26" y="9" width="3" height="2" fill="#FAFAFA"/>
<rect x="21" y="9" width="6" height="2" fill="#FAFAFA"/>
<rect x="23" y="12" width="2" height="1" fill="#FAFAFA"/>
<rect x="21" y="11" width="6" height="1" fill="#FAFAFA"/>
<rect x="35" y="6" width="3" height="2" fill="#FAFAFA"/>
<rect x="42" y="6" width="3" height="2" fill="#FAFAFA"/>
<rect x="37" y="5" width="6" height="1" fill="#FAFAFA"/>
<rect x="32" y="3" width="7" height="4" fill="#FAFAFA"/>
<rect x="41" y="3" width="7" height="4" fill="#FAFAFA"/>
<rect x="42" y="1" width="5" height="5" fill="#FAFAFA"/>
<rect x="33" y="1" width="5" height="5" fill="#FAFAFA"/>
<rect x="32" y="7" width="6" height="2" fill="#FAFAFA"/>
<rect x="42" y="7" width="6" height="2" fill="#FAFAFA"/>
<rect x="43" y="4" width="2" height="2" fill="white"/>
<rect x="43" y="5" width="2" height="1" fill="#E8E5E5"/>
<rect x="38" y="5" width="4" height="4" fill="#FAFAFA"/>
<rect x="33" y="9" width="5" height="2" fill="#FAFAFA"/>
<rect x="42" y="9" width="5" height="2" fill="#FAFAFA"/>
<rect x="37" y="9" width="6" height="2" fill="#FAFAFA"/>
<rect x="37" y="12" width="6" height="2" fill="#FAFAFA"/>
<rect x="38" y="13" width="4" height="2" fill="#FAFAFA"/>
<rect x="35" y="11" width="11" height="2" fill="#FAFAFA"/>
</svg>
