<svg width="48" height="16" viewBox="0 0 48 16" fill="none" xmlns="http://www.w3.org/2000/svg">
<rect x="4" y="6" width="6" height="2" fill="white"/>
<rect x="6" y="7" width="1" height="2" fill="white"/>
<rect x="6" y="8" width="1" height="1" fill="black" fill-opacity="0.15"/>
<rect x="4" y="7" width="1" height="2" fill="white"/>
<rect x="3" y="6" width="1" height="2" fill="white"/>
<rect x="9" y="5" width="5" height="5" fill="#EDEDED"/>
<rect x="11" y="6" width="2" height="2" fill="#AEAEAE"/>
<rect x="9" y="9" width="1" height="1" fill="black" fill-opacity="0.15"/>
<rect x="10" y="9" width="4" height="1" fill="black" fill-opacity="0.15"/>
<rect x="7" y="7" width="2" height="1" fill="black" fill-opacity="0.1"/>
<rect x="3" y="7" width="1" height="1" fill="black" fill-opacity="0.1"/>
<rect x="5" y="7" width="1" height="1" fill="black" fill-opacity="0.1"/>
<rect x="20" y="7" width="6" height="2" fill="white"/>
<rect x="22" y="8" width="1" height="2" fill="white"/>
<rect x="22" y="9" width="1" height="1" fill="black" fill-opacity="0.15"/>
<rect x="20" y="8" width="1" height="2" fill="white"/>
<rect x="19" y="7" width="1" height="2" fill="white"/>
<rect x="25" y="6" width="5" height="5" fill="#EDEDED"/>
<rect x="27" y="7" width="2" height="2" fill="#AEAEAE"/>
<rect x="25" y="10" width="1" height="1" fill="black" fill-opacity="0.15"/>
<rect x="26" y="10" width="4" height="1" fill="black" fill-opacity="0.15"/>
<rect x="23" y="8" width="2" height="1" fill="black" fill-opacity="0.1"/>
<rect x="19" y="8" width="1" height="1" fill="black" fill-opacity="0.1"/>
<rect x="21" y="8" width="1" height="1" fill="black" fill-opacity="0.1"/>
<rect x="36" y="5" width="6" height="2" fill="white"/>
<rect x="38" y="6" width="1" height="2" fill="white"/>
<rect x="38" y="7" width="1" height="1" fill="black" fill-opacity="0.15"/>
<rect x="36" y="6" width="1" height="2" fill="white"/>
<rect x="35" y="5" width="1" height="2" fill="white"/>
<rect x="41" y="4" width="5" height="5" fill="#EDEDED"/>
<rect x="43" y="5" width="2" height="2" fill="#AEAEAE"/>
<rect x="41" y="8" width="1" height="1" fill="black" fill-opacity="0.15"/>
<rect x="42" y="8" width="4" height="1" fill="black" fill-opacity="0.15"/>
<rect x="39" y="6" width="2" height="1" fill="black" fill-opacity="0.1"/>
<rect x="35" y="6" width="1" height="1" fill="black" fill-opacity="0.1"/>
<rect x="37" y="6" width="1" height="1" fill="black" fill-opacity="0.1"/>
</svg>
