<svg width="48" height="16" viewBox="0 0 48 16" fill="none" xmlns="http://www.w3.org/2000/svg">
<rect x="5" y="8" width="6" height="5" fill="white"/>
<rect width="1" height="2" transform="matrix(1 0 0 -1 5 15)" fill="white"/>
<rect width="1" height="2" transform="matrix(1 0 0 -1 10 15)" fill="white"/>
<rect width="1" height="2" transform="matrix(1 0 0 -1 11 11)" fill="white"/>
<rect width="1" height="2" transform="matrix(1 0 0 -1 12 12)" fill="white"/>
<rect width="1" height="2" transform="matrix(1 0 0 -1 4 11)" fill="white"/>
<rect width="1" height="2" transform="matrix(1 0 0 -1 3 12)" fill="white"/>
<rect x="5" y="1" width="6" height="1" fill="white"/>
<rect x="5" y="6" width="6" height="1" fill="white"/>
<rect x="4" y="2" width="8" height="4" fill="white"/>
<rect x="6" y="3" width="1" height="2" fill="#404040"/>
<rect x="9" y="3" width="1" height="2" fill="#404040"/>
<rect x="21" width="6" height="1" fill="white"/>
<rect x="21" y="5" width="6" height="1" fill="white"/>
<rect x="21" y="7" width="6" height="5" fill="white"/>
<rect width="1" height="4" transform="matrix(1 0 0 -1 21 15)" fill="white"/>
<rect width="1" height="3" transform="matrix(1 0 0 -1 26 15)" fill="white"/>
<rect width="1" height="2" transform="matrix(1 0 0 -1 27 10)" fill="white"/>
<rect width="1" height="2" transform="matrix(1 0 0 -1 28 11)" fill="white"/>
<rect width="1" height="2" transform="matrix(1 0 0 -1 20 10)" fill="white"/>
<rect width="1" height="2" transform="matrix(1 0 0 -1 19 11)" fill="white"/>
<rect x="20" y="1" width="8" height="4" fill="white"/>
<rect x="23" y="2" width="1" height="2" fill="#404040"/>
<rect x="26" y="2" width="1" height="2" fill="#404040"/>
<rect x="37" y="1" width="6" height="1" fill="white"/>
<rect x="37" y="6" width="6" height="1" fill="white"/>
<rect x="37" y="8" width="6" height="5" fill="white"/>
<rect width="1" height="2" transform="matrix(1 0 0 -1 37 15)" fill="white"/>
<rect width="1" height="3" transform="matrix(1 0 0 -1 42 15)" fill="white"/>
<rect width="1" height="2" transform="matrix(1 0 0 -1 43 11)" fill="white"/>
<rect width="1" height="2" transform="matrix(1 0 0 -1 44 12)" fill="white"/>
<rect width="1" height="2" transform="matrix(1 0 0 -1 36 11)" fill="white"/>
<rect width="1" height="2" transform="matrix(1 0 0 -1 35 12)" fill="white"/>
<rect x="36" y="2" width="8" height="4" fill="white"/>
<rect x="37" y="3" width="1" height="2" fill="#404040"/>
<rect x="40" y="3" width="1" height="2" fill="#404040"/>
</svg>
