<svg width="48" height="16" viewBox="0 0 48 16" fill="none" xmlns="http://www.w3.org/2000/svg">
<g clip-path="url(#clip0_68_6)">
<rect x="36" width="8" height="15" fill="#919191"/>
<rect x="33" y="3" width="14" height="9" fill="#919191"/>
<rect x="33" y="3" width="15" height="5" fill="#919191"/>
<rect x="27" y="6" width="15" height="5" fill="#919191"/>
<rect x="34" y="2" width="12" height="11" fill="#919191"/>
<rect x="35" y="1" width="10" height="13" fill="#919191"/>
<rect x="34" y="3" width="12" height="9" fill="#B1B1B1"/>
<rect x="35" y="2" width="10" height="11" fill="#B1B1B1"/>
<rect x="36" y="1" width="8" height="13" fill="#B1B1B1"/>
<rect x="36" y="3" width="1" height="1" fill="black" fill-opacity="0.17"/>
<rect x="43" y="3" width="1" height="1" fill="black" fill-opacity="0.17"/>
<rect x="36" y="11" width="1" height="1" fill="black" fill-opacity="0.17"/>
<rect x="43" y="11" width="1" height="1" fill="black" fill-opacity="0.17"/>
<rect x="37" y="12" width="6" height="1" fill="black" fill-opacity="0.17"/>
<rect x="37" y="2" width="6" height="1" fill="black" fill-opacity="0.17"/>
<rect x="38" y="4" width="4" height="1" fill="black" fill-opacity="0.17"/>
<rect x="38" y="10" width="4" height="1" fill="black" fill-opacity="0.17"/>
<rect x="35" y="4" width="1" height="7" fill="black" fill-opacity="0.17"/>
<rect x="44" y="4" width="1" height="7" fill="black" fill-opacity="0.17"/>
<rect x="37" y="5" width="6" height="5" fill="black" fill-opacity="0.17"/>
<rect x="39" y="5" width="2" height="5" fill="#B1B1B1"/>
<rect x="38" y="6" width="4" height="3" fill="#B1B1B1"/>
</g>
<rect x="3" y="1" width="10" height="13" fill="#919191"/>
<rect x="4" width="8" height="15" fill="#919191"/>
<rect x="1" y="3" width="14" height="9" fill="#919191"/>
<rect x="2" y="2" width="12" height="11" fill="#919191"/>
<rect x="2" y="3" width="12" height="9" fill="#B1B1B1"/>
<rect x="3" y="2" width="10" height="11" fill="#B1B1B1"/>
<rect x="4" y="1" width="8" height="13" fill="#B1B1B1"/>
<rect x="4" y="3" width="1" height="1" fill="white" fill-opacity="0.13"/>
<rect x="11" y="3" width="1" height="1" fill="white" fill-opacity="0.13"/>
<rect x="4" y="11" width="1" height="1" fill="white" fill-opacity="0.13"/>
<rect x="11" y="11" width="1" height="1" fill="white" fill-opacity="0.13"/>
<rect x="5" y="12" width="6" height="1" fill="white" fill-opacity="0.13"/>
<rect x="5" y="2" width="6" height="1" fill="white" fill-opacity="0.13"/>
<rect x="6" y="4" width="4" height="1" fill="white" fill-opacity="0.13"/>
<rect x="6" y="10" width="4" height="1" fill="white" fill-opacity="0.13"/>
<rect x="3" y="4" width="1" height="7" fill="white" fill-opacity="0.13"/>
<rect x="12" y="4" width="1" height="7" fill="white" fill-opacity="0.13"/>
<rect x="5" y="5" width="6" height="5" fill="white" fill-opacity="0.13"/>
<rect x="7" y="5" width="2" height="5" fill="#B1B1B1"/>
<rect x="6" y="6" width="4" height="3" fill="#B1B1B1"/>
<rect x="13" y="2" width="1" height="1" fill="#9A9A9A" fill-opacity="0.4"/>
<rect x="11" width="1" height="1" fill="#9A9A9A" fill-opacity="0.4"/>
<rect x="2" y="2" width="1" height="1" fill="#9A9A9A" fill-opacity="0.4"/>
<rect width="1" height="1" transform="matrix(1 0 0 -1 12 14)" fill="#9A9A9A" fill-opacity="0.4"/>
<rect width="1" height="1" transform="matrix(1 0 0 -1 3 14)" fill="#9A9A9A" fill-opacity="0.4"/>
<rect x="17" y="3" width="14" height="9" fill="#919191"/>
<rect x="16" y="6" width="15" height="5" fill="#919191"/>
<rect x="18" y="2" width="12" height="11" fill="#919191"/>
<rect x="19" y="1" width="10" height="13" fill="#919191"/>
<rect x="20" width="8" height="15" fill="#919191"/>
<rect x="18" y="3" width="12" height="9" fill="#B1B1B1"/>
<rect x="19" y="2" width="10" height="11" fill="#B1B1B1"/>
<rect x="20" y="1" width="8" height="13" fill="#B1B1B1"/>
<rect x="20" y="3" width="1" height="1" fill="#BBBBBB"/>
<rect x="27" y="3" width="1" height="1" fill="#BBBBBB"/>
<rect x="20" y="11" width="1" height="1" fill="#BBBBBB"/>
<rect x="27" y="11" width="1" height="1" fill="#BBBBBB"/>
<rect x="21" y="12" width="6" height="1" fill="#BBBBBB"/>
<rect x="21" y="2" width="6" height="1" fill="#BBBBBB"/>
<rect x="22" y="4" width="4" height="1" fill="black" fill-opacity="0.17"/>
<rect x="22" y="10" width="4" height="1" fill="black" fill-opacity="0.17"/>
<rect x="19" y="4" width="1" height="7" fill="#BBBBBB"/>
<rect x="28" y="4" width="1" height="7" fill="#BBBBBB"/>
<rect x="21" y="5" width="6" height="5" fill="black" fill-opacity="0.17"/>
<rect x="23" y="5" width="2" height="5" fill="#B1B1B1"/>
<rect x="22" y="6" width="4" height="3" fill="#B1B1B1"/>
<defs>
<clipPath id="clip0_68_6">
<rect width="16" height="16" fill="white" transform="translate(32)"/>
</clipPath>
</defs>
</svg>
