<svg width="48" height="16" viewBox="0 0 48 16" fill="none" xmlns="http://www.w3.org/2000/svg">
<rect width="8" height="1" transform="matrix(1 0 0 -1 36 1)" fill="#BFBFBF"/>
<rect width="8" height="1" transform="matrix(1 0 0 -1 36 15)" fill="#BFBFBF"/>
<rect width="2" height="1" transform="matrix(1 0 0 -1 43 14)" fill="#BFBFBF"/>
<rect width="1" height="2" transform="matrix(1 0 0 -1 44 14)" fill="#BFBFBF"/>
<rect x="43" y="14" width="1" height="1" fill="#9A9A9A" fill-opacity="0.4"/>
<rect x="36" y="14" width="1" height="1" fill="#9A9A9A" fill-opacity="0.4"/>
<rect x="36" width="1" height="1" fill="#9A9A9A" fill-opacity="0.4"/>
<rect x="43" width="1" height="1" fill="#9A9A9A" fill-opacity="0.4"/>
<rect width="8" height="1" transform="matrix(1 0 0 -1 36 15)" fill="#9A9A9A" fill-opacity="0.4"/>
<rect width="2" height="1" transform="matrix(-1 0 0 1 37 1)" fill="#BFBFBF"/>
<rect width="1" height="2" transform="matrix(-1 0 0 1 36 1)" fill="#BFBFBF"/>
<rect width="8" height="1" transform="matrix(-1 0 0 1 44 0)" fill="#9A9A9A" fill-opacity="0.4"/>
<rect width="1" height="1" transform="matrix(-1 0 0 1 36 1)" fill="#9A9A9A" fill-opacity="0.4"/>
<rect x="4" width="8" height="1" fill="#BFBFBF"/>
<rect x="4" width="8" height="1" fill="#BFBFBF"/>
<rect x="4" y="14" width="8" height="1" fill="#BFBFBF"/>
<rect x="3" y="1" width="2" height="1" fill="#BFBFBF"/>
<rect width="2" height="1" transform="matrix(1 0 0 -1 2 3)" fill="#BFBFBF"/>
<rect width="2" height="1" transform="matrix(1 0 0 -1 12 3)" fill="#BFBFBF"/>
<rect x="11" y="1" width="2" height="1" fill="#BFBFBF"/>
<rect x="12" y="1" width="1" height="1" fill="#9A9A9A" fill-opacity="0.4"/>
<rect x="13" y="2" width="1" height="1" fill="#9A9A9A" fill-opacity="0.4"/>
<rect x="11" width="1" height="1" fill="#9A9A9A" fill-opacity="0.4"/>
<rect x="3" y="1" width="1" height="1" fill="#9A9A9A" fill-opacity="0.4"/>
<rect x="2" y="2" width="1" height="1" fill="#9A9A9A" fill-opacity="0.4"/>
<rect x="4" width="1" height="1" fill="#9A9A9A" fill-opacity="0.4"/>
<rect x="4" width="8" height="1" fill="#9A9A9A" fill-opacity="0.4"/>
<rect width="2" height="2" transform="matrix(1 0 0 -1 3 14)" fill="#BFBFBF"/>
<rect width="2" height="2" transform="matrix(1 0 0 -1 11 14)" fill="#BFBFBF"/>
<rect width="1" height="1" transform="matrix(1 0 0 -1 12 14)" fill="#9A9A9A" fill-opacity="0.4"/>
<rect width="1" height="1" transform="matrix(1 0 0 -1 3 14)" fill="#9A9A9A" fill-opacity="0.4"/>
<rect width="8" height="1" transform="matrix(1 0 0 -1 4 15)" fill="#9A9A9A" fill-opacity="0.4"/>
<rect width="2" height="1" transform="matrix(1 0 0 -1 27 14)" fill="#BFBFBF"/>
<rect width="1" height="2" transform="matrix(1 0 0 -1 28 14)" fill="#BFBFBF"/>
<rect width="8" height="1" transform="matrix(1 0 0 -1 20 15)" fill="#BFBFBF"/>
<rect width="8" height="1" transform="matrix(1 0 0 -1 20 1)" fill="#BFBFBF"/>
<rect width="8" height="1" transform="matrix(1 0 0 -1 20 15)" fill="#9A9A9A" fill-opacity="0.4"/>
<rect width="2" height="1" transform="matrix(-1 0 0 1 21 1)" fill="#BFBFBF"/>
<rect width="1" height="2" transform="matrix(-1 0 0 1 20 1)" fill="#BFBFBF"/>
<rect width="8" height="1" transform="matrix(-1 0 0 1 28 0)" fill="#9A9A9A" fill-opacity="0.4"/>
<rect x="20" width="1" height="1" fill="#9A9A9A" fill-opacity="0.4"/>
<rect x="27" width="1" height="1" fill="#9A9A9A" fill-opacity="0.4"/>
<rect x="28" y="13" width="1" height="1" fill="#9A9A9A" fill-opacity="0.4"/>
<rect x="27" y="14" width="1" height="1" fill="#9A9A9A" fill-opacity="0.4"/>
<rect x="20" y="14" width="1" height="1" fill="#9A9A9A" fill-opacity="0.4"/>
<rect x="19" y="1" width="1" height="1" fill="#9A9A9A" fill-opacity="0.4"/>
</svg>
