<svg width="48" height="16" viewBox="0 0 48 16" fill="none" xmlns="http://www.w3.org/2000/svg">
<rect x="1" y="1" width="5" height="2" fill="white"/>
<rect x="1" y="4" width="3" height="2" fill="white"/>
<rect x="12" y="4" width="3" height="2" fill="white"/>
<rect x="10" y="1" width="5" height="2" fill="white"/>
<rect x="5" y="4" width="6" height="2" fill="white"/>
<rect x="7" y="1" width="2" height="2" fill="white"/>
<rect x="1" y="7" width="5" height="2" fill="white"/>
<rect x="10" y="7" width="5" height="2" fill="white"/>
<rect x="7" y="7" width="2" height="2" fill="white"/>
<rect x="1" y="10" width="3" height="2" fill="white"/>
<rect x="12" y="10" width="3" height="2" fill="white"/>
<rect x="5" y="10" width="6" height="2" fill="white"/>
<rect x="1" y="13" width="5" height="2" fill="white"/>
<rect x="10" y="13" width="5" height="2" fill="white"/>
<rect x="7" y="13" width="2" height="2" fill="white"/>
<rect x="17" y="1" width="8" height="2" fill="white"/>
<rect x="17" y="4" width="3" height="2" fill="white"/>
<rect x="25" y="4" width="6" height="2" fill="white"/>
<rect x="29" y="1" width="2" height="2" fill="white"/>
<rect x="21" y="4" width="3" height="2" fill="white"/>
<rect x="26" y="1" width="2" height="2" fill="white"/>
<rect x="17" y="7" width="7" height="2" fill="white"/>
<rect x="28" y="7" width="3" height="2" fill="white"/>
<rect x="25" y="7" width="2" height="2" fill="white"/>
<rect x="17" y="10" width="3" height="2" fill="white"/>
<rect x="24" y="10" width="7" height="2" fill="white"/>
<rect x="21" y="10" width="2" height="2" fill="white"/>
<rect x="17" y="13" width="2" height="2" fill="white"/>
<rect x="23" y="13" width="8" height="2" fill="white"/>
<rect x="20" y="13" width="2" height="2" fill="white"/>
<rect width="8" height="2" transform="matrix(-1 0 0 1 47 1)" fill="white"/>
<rect width="3" height="2" transform="matrix(-1 0 0 1 47 4)" fill="white"/>
<rect width="6" height="2" transform="matrix(-1 0 0 1 39 4)" fill="white"/>
<rect width="2" height="2" transform="matrix(-1 0 0 1 35 1)" fill="white"/>
<rect width="3" height="2" transform="matrix(-1 0 0 1 43 4)" fill="white"/>
<rect width="2" height="2" transform="matrix(-1 0 0 1 38 1)" fill="white"/>
<rect width="7" height="2" transform="matrix(-1 0 0 1 47 7)" fill="white"/>
<rect width="3" height="2" transform="matrix(-1 0 0 1 36 7)" fill="white"/>
<rect width="2" height="2" transform="matrix(-1 0 0 1 39 7)" fill="white"/>
<rect width="3" height="2" transform="matrix(-1 0 0 1 47 10)" fill="white"/>
<rect width="7" height="2" transform="matrix(-1 0 0 1 40 10)" fill="white"/>
<rect width="2" height="2" transform="matrix(-1 0 0 1 43 10)" fill="white"/>
<rect width="2" height="2" transform="matrix(-1 0 0 1 47 13)" fill="white"/>
<rect width="8" height="2" transform="matrix(-1 0 0 1 41 13)" fill="white"/>
<rect width="2" height="2" transform="matrix(-1 0 0 1 44 13)" fill="white"/>
</svg>
