<svg width="150" height="150" viewBox="0 0 150 150" fill="none" xmlns="http://www.w3.org/2000/svg">
<path d="M62.6558 124.78H57.6724V129.763H62.6558V124.78Z" fill="white"/>
<path d="M87.5727 94.8793H62.6558V129.763H87.5727V94.8793Z" fill="white"/>
<path d="M87.5727 129.763H62.6558V134.746H87.5727V129.763Z" fill="white"/>
<path d="M83 90H68V135H83V90Z" fill="white"/>
<path d="M82.5893 114.813H77.606V119.796H82.5893V114.813Z" fill="white"/>
<path d="M92.5561 99.8627H57.6724V129.763H92.5561V99.8627Z" fill="white"/>
<path d="M67.6392 124.78H62.6558V129.763H67.6392V124.78Z" fill="white"/>
<path d="M72.6225 114.813H67.6392V119.796H72.6225V114.813Z" fill="white"/>
<path d="M93 100H57V130H93V100Z" fill="white"/>
<path d="M87.5727 94.8793H82.5894V99.8627H87.5727V94.8793Z" fill="white"/>
<path d="M88 95H62V135H88V95Z" fill="white"/>
<path d="M62.6558 99.8627H57.6724V104.846H62.6558V99.8627Z" fill="white"/>
<path d="M92.5561 104.846H87.5728V129.763H92.5561V104.846Z" fill="white"/>
<path d="M124.948 87.4042V92.3876H129.932V87.4042H124.948Z" fill="white"/>
<path d="M95.0479 62.4872V87.4041H129.932V62.4872H95.0479Z" fill="white"/>
<path d="M129.932 62.4872V87.4041H134.915V62.4872H129.932Z" fill="white"/>
<path d="M90 67V82H135V67H90Z" fill="white"/>
<path d="M114.981 67.4706V72.454H119.965V67.4706H114.981Z" fill="white"/>
<path d="M100.031 57.5038V92.3875H129.932V57.5038H100.031Z" fill="white"/>
<path d="M124.948 82.4208V87.4042H129.932V82.4208H124.948Z" fill="white"/>
<path d="M114.981 77.4374V82.4208H119.965V77.4374H114.981Z" fill="white"/>
<path d="M100 57V93H130V57H100Z" fill="white"/>
<path d="M95.0479 62.4872V67.4706H100.031V62.4872H95.0479Z" fill="white"/>
<path d="M95 60V90H136V60H95Z" fill="white"/>
<path d="M100.031 87.4042V92.3876H105.015V87.4042H100.031Z" fill="white"/>
<path d="M105.015 57.5038V62.4872H129.932V57.5038H105.015Z" fill="white"/>
<path d="M25.2798 87.4042V92.3876H20.2964V87.4042H25.2798Z" fill="white"/>
<path d="M55.1804 62.4872V87.4041H20.2964V62.4872H55.1804Z" fill="white"/>
<path d="M20.2964 62.4872V87.4041H15.313V62.4872H20.2964Z" fill="white"/>
<path d="M60 67V82H15V67H60Z" fill="white"/>
<path d="M35.2466 67.4706V72.454H30.2632V67.4706H35.2466Z" fill="white"/>
<path d="M50.197 57.5038V92.3875H20.2964V57.5038H50.197Z" fill="white"/>
<path d="M25.2798 82.4208V87.4042H20.2964V82.4208H25.2798Z" fill="white"/>
<path d="M35.2466 77.4374V82.4208H30.2632V77.4374H35.2466Z" fill="white"/>
<path d="M50.197 57.5038V92.3875H20.2964V57.5038H50.197Z" fill="white"/>
<path d="M55.1807 62.4872V67.4706H50.1973V62.4872H55.1807Z" fill="white"/>
<path d="M56 62V88H15V62H56Z" fill="white"/>
<path d="M50.197 87.4042V92.3876H45.2134V87.4042H50.197Z" fill="white"/>
<path d="M50 57V93H20V57H50Z" fill="white"/>
<path d="M62.6558 25.1117H57.6724V20.1283H62.6558V25.1117Z" fill="white"/>
<path d="M87.5727 55.0121H62.6558V20.1283H87.5727V55.0121Z" fill="white"/>
<path d="M87.5727 20.1284H62.6558V15.145H87.5727V20.1284Z" fill="white"/>
<path d="M83 60H67V15H83V60Z" fill="white"/>
<path d="M82.5893 35.0785H77.606V30.0951H82.5893V35.0785Z" fill="white"/>
<path d="M92.5561 50.0287H57.6724V20.1283H92.5561V50.0287Z" fill="white"/>
<path d="M67.6392 25.1117H62.6558V20.1283H67.6392V25.1117Z" fill="white"/>
<path d="M72.6225 35.0785H67.6392V30.0951H72.6225V35.0785Z" fill="white"/>
<path d="M92.5561 50.0287H57.6724V20.1283H92.5561V50.0287Z" fill="white"/>
<path d="M87.5727 55.0121H82.5894V50.0287H87.5727V55.0121Z" fill="white"/>
<path d="M88 55H62V15H88V55Z" fill="white"/>
<path d="M62.6558 50.0287H57.6724V45.0453H62.6558V50.0287Z" fill="white"/>
<path d="M93 50H57V20H93V50Z" fill="white"/>
</svg>
