<svg width="301" height="311" viewBox="0 0 301 311" fill="none" xmlns="http://www.w3.org/2000/svg">
<path d="M210.729 120.067H200.729V130.067H210.729V120.067Z" fill="white"/>
<path d="M200.729 140.067H190.729V130.067H200.729V140.067Z" fill="white"/>
<path d="M250.729 180.067H200.729V130.067H250.729V180.067Z" fill="white"/>
<path d="M250.729 130.067H210.729V120.067H250.729V130.067Z" fill="white"/>
<path d="M240.729 190.067H200.729V180.067H240.729V190.067Z" fill="white"/>
<path d="M240.729 160.067H230.729V150.067H240.729V160.067Z" fill="white"/>
<path d="M200.729 180.067H190.729V140.067H200.729V180.067Z" fill="white"/>
<path d="M210.729 140.067H200.729V130.067H210.729V140.067Z" fill="white"/>
<path d="M220.729 160.067H210.729V150.067H220.729V160.067Z" fill="white"/>
<path d="M250.729 190.067H240.729V180.067H250.729V190.067Z" fill="white"/>
<path d="M260.729 180.067H250.729V130.067H260.729V180.067Z" fill="white"/>
<path d="M60.7285 120.067H50.7285V130.067H60.7285V120.067Z" fill="#C4DAD0"/>
<path d="M50.7285 140.067H40.7285V130.067H50.7285V140.067Z" fill="#C4DAD0"/>
<path d="M100.729 180.067H50.7285V130.067H100.729V180.067Z" fill="#C4DAD0"/>
<path d="M100.729 130.067H60.7285V120.067H100.729V130.067Z" fill="#C4DAD0"/>
<path d="M90.7285 190.067H50.7285V180.067H90.7285V190.067Z" fill="#C4DAD0"/>
<path d="M90.7285 160.067H80.7285V150.067H90.7285V160.067Z" fill="#C4DAD0"/>
<path d="M50.7285 180.067H40.7285V140.067H50.7285V180.067Z" fill="#C4DAD0"/>
<path d="M60.7285 140.067H50.7285V130.067H60.7285V140.067Z" fill="#C4DAD0"/>
<path d="M70.7285 160.067H60.7285V150.067H70.7285V160.067Z" fill="#C4DAD0"/>
<path d="M100.729 190.067H90.7285V180.067H100.729V190.067Z" fill="#C4DAD0"/>
<path d="M110.729 180.067H100.729V130.067H110.729V180.067Z" fill="#C4DAD0"/>
<path d="M135.729 40.067H125.729V50.067H135.729V40.067Z" fill="#C4DAD0"/>
<path d="M125.729 60.067H115.729V50.067H125.729V60.067Z" fill="#C4DAD0"/>
<path d="M175.729 100.067H125.729V50.067H175.729V100.067Z" fill="#C4DAD0"/>
<path d="M175.729 50.067H135.729V40.067H175.729V50.067Z" fill="#C4DAD0"/>
<path d="M165.729 110.067H125.729V100.067H165.729V110.067Z" fill="#C4DAD0"/>
<path d="M165.729 80.067H155.729V70.067H165.729V80.067Z" fill="#C4DAD0"/>
<path d="M125.729 100.067H115.729V60.067H125.729V100.067Z" fill="#C4DAD0"/>
<path d="M135.729 60.067H125.729V50.067H135.729V60.067Z" fill="#C4DAD0"/>
<path d="M145.729 80.067H135.729V70.067H145.729V80.067Z" fill="#C4DAD0"/>
<path d="M175.729 110.067H165.729V100.067H175.729V110.067Z" fill="#C4DAD0"/>
<path d="M185.729 100.067H175.729V50.067H185.729V100.067Z" fill="#C4DAD0"/>
<path d="M135.729 200.067H125.729V210.067H135.729V200.067Z" fill="#C4DAD0"/>
<path d="M125.729 220.067H115.729V210.067H125.729V220.067Z" fill="#C4DAD0"/>
<path d="M175.729 260.067H125.729V210.067H175.729V260.067Z" fill="#C4DAD0"/>
<path d="M175.729 210.067H135.729V200.067H175.729V210.067Z" fill="#C4DAD0"/>
<path d="M165.729 270.067H125.729V260.067H165.729V270.067Z" fill="#C4DAD0"/>
<path d="M165.729 240.067H155.729V230.067H165.729V240.067Z" fill="#C4DAD0"/>
<path d="M125.729 260.067H115.729V220.067H125.729V260.067Z" fill="#C4DAD0"/>
<path d="M135.729 220.067H125.729V210.067H135.729V220.067Z" fill="#C4DAD0"/>
<path d="M145.729 240.067H135.729V230.067H145.729V240.067Z" fill="#C4DAD0"/>
<path d="M175.729 270.067H165.729V260.067H175.729V270.067Z" fill="#C4DAD0"/>
<path d="M185.729 260.067H175.729V210.067H185.729V260.067Z" fill="#C4DAD0"/>
</svg>
