<svg width="16" height="16" viewBox="0 0 16 16" fill="none" xmlns="http://www.w3.org/2000/svg">
<rect width="6" height="1" transform="matrix(1 0 0 -1 5 4)" fill="white"/>
<rect width="6" height="8" transform="matrix(1 0 0 -1 5 11)" fill="white"/>
<rect width="4" height="9" transform="matrix(1 0 0 -1 6 12)" fill="white"/>
<rect width="1" height="1" transform="matrix(1 0 0 -1 5 11)" fill="white"/>
<rect width="1" height="1" transform="matrix(1 0 0 -1 6 12)" fill="white"/>
<rect width="1" height="1" transform="matrix(1 0 0 -1 9 12)" fill="white"/>
<rect width="1" height="1" transform="matrix(1 0 0 -1 10 11)" fill="white"/>
<rect width="2" height="1" transform="matrix(1 0 0 -1 7 13)" fill="white"/>
<rect width="1" height="6" transform="matrix(1 0 0 -1 4 10)" fill="white"/>
<rect width="1" height="6" transform="matrix(1 0 0 -1 11 10)" fill="white"/>
<rect width="8" height="6" transform="matrix(1 0 0 -1 4 10)" fill="white"/>
</svg>
