<svg width="150" height="150" viewBox="0 0 150 150" fill="none" xmlns="http://www.w3.org/2000/svg">
<path d="M80 40H90V30H80V40Z" fill="white"/>
<path d="M70 40H80V30H70V40Z" fill="white"/>
<path d="M30 80H40V60H30V80Z" fill="white"/>
<path d="M40 60H50V50H40V60Z" fill="white"/>
<path d="M50 50H60V40H50V50Z" fill="white"/>
<path d="M60 40H70V30H60V40Z" fill="white"/>
<path d="M90 50H100V40H90V50Z" fill="white"/>
<path d="M100 60H110V50H100V60Z" fill="white"/>
<path d="M110 80H120V60H110V80Z" fill="white"/>
<path d="M30 90L120 90V80L30 80V90Z" fill="white"/>
<path d="M70 90H110V70H70V90Z" fill="white"/>
<path d="M40 100L110 100V90L40 90V100Z" fill="white"/>
<path d="M50 110H100V100H50V110Z" fill="white"/>
<path d="M60 120H90V110H60V120Z" fill="white"/>
</svg>
