<svg width="15" height="15" viewBox="0 0 15 15" fill="none" xmlns="http://www.w3.org/2000/svg">
<rect width="9" height="1" transform="matrix(1 0 0 -1 3 3)" fill="white"/>
<rect width="5" height="1" transform="matrix(1 0 0 -1 3 10)" fill="white"/>
<rect width="2" height="1" transform="matrix(1 0 0 -1 11 14.0014)" fill="white"/>
<rect width="5" height="1" transform="matrix(1 0 0 -1 8 14.0014)" fill="white"/>
<rect width="1" height="4.0014" transform="matrix(1 0 0 -1 7 14.0014)" fill="white"/>
<rect width="1" height="2" transform="matrix(1 0 0 -1 10 7)" fill="white"/>
<rect width="3" height="1" transform="matrix(1 0 0 -1 8 7)" fill="white"/>
<rect width="1" height="6" transform="matrix(1 0 0 -1 2 9)" fill="white"/>
<rect width="1" height="11.0014" transform="matrix(1 0 0 -1 12 14.0014)" fill="white"/>
</svg>
