<svg width="15" height="15" viewBox="0 0 15 15" fill="none" xmlns="http://www.w3.org/2000/svg">
<rect width="9" height="1" transform="matrix(1 0 0 -1 3 3)" fill="white"/>
<rect width="2" height="1" transform="matrix(1 0 0 -1 3 11)" fill="white"/>
<rect width="2" height="1" transform="matrix(1 0 0 -1 10 11)" fill="white"/>
<rect width="5" height="1" transform="matrix(1 0 0 -1 5 12)" fill="white"/>
<rect width="5" height="1" transform="matrix(1 0 0 -1 5 9)" fill="white"/>
<rect width="1" height="3" transform="matrix(1 0 0 -1 4.99414 7)" fill="white"/>
<rect width="5" height="1" transform="matrix(1 0 0 -1 5 5)" fill="white"/>
<rect width="1" height="3" transform="matrix(1 0 0 -1 9 9)" fill="white"/>
<rect width="4.13574" height="1" transform="matrix(1 0 0 -1 5.86426 7)" fill="white"/>
<rect width="1" height="1" transform="matrix(1 0 0 -1 9 9)" fill="white"/>
<rect width="1" height="7" transform="matrix(1 0 0 -1 2 10)" fill="white"/>
<rect width="1" height="7" transform="matrix(1 0 0 -1 12 10)" fill="white"/>
</svg>
