<svg width="16" height="16" viewBox="0 0 16 16" fill="none" xmlns="http://www.w3.org/2000/svg">
<rect width="10" height="1" transform="matrix(1 0 0 -1 3 4)" fill="white"/>
<rect width="2" height="1" transform="matrix(1 0 0 -1 3 12)" fill="white"/>
<rect width="2" height="1" transform="matrix(1 0 0 -1 11 12)" fill="white"/>
<rect width="6" height="1" transform="matrix(1 0 0 -1 5 12)" fill="white"/>
<rect width="3" height="1" transform="matrix(1 0 0 -1 4 6)" fill="white"/>
<rect width="3" height="1" transform="matrix(1 0 0 -1 4 8)" fill="white"/>
<rect width="3" height="1" transform="matrix(1 0 0 -1 4 8)" fill="white"/>
<rect width="1" height="5" transform="matrix(1 0 0 -1 4 10)" fill="white"/>
<rect width="1" height="3" transform="matrix(1 0 0 -1 9 8)" fill="white"/>
<rect width="1" height="2" transform="matrix(1 0 0 -1 11 10)" fill="white"/>
<rect width="2" height="1" transform="matrix(1 0 0 -1 10 6)" fill="white"/>
<rect width="2" height="1" transform="matrix(1 0 0 -1 10 8)" fill="white"/>
<rect width="2" height="1" transform="matrix(1 0 0 -1 9 10)" fill="white"/>
<rect width="1" height="7" transform="matrix(1 0 0 -1 2 11)" fill="white"/>
<rect width="1" height="7" transform="matrix(1 0 0 -1 13 11)" fill="white"/>
</svg>
